<svg version="1.1" id="Layer_1" xmlns="http://www.w3.org/2000/svg" xmlns:xlink="http://www.w3.org/1999/xlink" x="0px" y="0px"
	 width="100%" viewBox="0 0 1024 1024" enable-background="new 0 0 1024 1024" xml:space="preserve">
<path fill="#000000" opacity="1.000000" stroke="none" 
	d="
M549.000000,1025.000000 
	C366.000000,1025.000000 183.500000,1025.000000 1.000000,1025.000000 
	C1.000000,683.666687 1.000000,342.333344 1.000000,1.000000 
	C342.333344,1.000000 683.666687,1.000000 1025.000000,1.000000 
	C1025.000000,342.333344 1025.000000,683.666687 1025.000000,1025.000000 
	C866.500000,1025.000000 708.000000,1025.000000 549.000000,1025.000000 
M320.001221,584.998596 
	C320.001221,584.998596 319.992188,584.986572 319.307922,585.058289 
	C318.550568,586.044250 317.793213,587.030273 317.003662,587.994995 
	C317.003662,587.994995 317.015533,588.031311 316.287964,588.314819 
	C311.530304,587.434204 306.765381,586.588562 302.027496,585.611938 
	C301.611298,585.526123 301.151642,584.607971 301.085724,584.033508 
	C300.626404,580.029602 298.530731,575.929871 303.518829,572.721008 
	C306.598114,570.740112 309.113556,567.648193 311.313263,564.639160 
	C312.324432,563.256104 311.969238,560.874146 312.233612,558.945129 
	C310.474304,559.133240 308.120453,558.667236 307.063263,559.627930 
	C303.389618,562.966370 300.238800,566.872375 296.726837,570.400940 
	C295.669128,571.463623 294.151611,572.473633 292.725220,572.679321 
	C289.858276,573.092834 286.909180,572.936401 284.000885,573.000000 
	C284.000885,573.000000 283.985291,573.006531 283.917175,572.322632 
	C282.945923,571.546082 281.974670,570.769592 281.000000,570.000000 
	C281.000000,570.000000 281.006805,569.996521 280.925873,569.310181 
	C271.482697,559.568665 262.086823,549.779907 252.498718,540.183167 
	C251.797577,539.481445 249.307800,539.621826 248.340057,540.323242 
	C246.168137,541.897522 246.790985,543.700073 248.999268,545.002441 
	C248.999268,545.002441 249.022141,544.991638 249.050034,545.688599 
	C250.362198,546.800415 251.674377,547.912292 253.000610,549.000000 
	C253.000610,549.000000 252.975800,549.013489 253.038315,549.704834 
	C254.354736,550.810730 255.671158,551.916626 257.000122,553.000000 
	C257.000122,553.000000 256.977539,553.012573 257.050873,553.700195 
	C258.362427,554.808655 259.674011,555.917114 261.000000,557.000000 
	C261.000000,557.000000 260.974274,557.014648 261.061310,557.697693 
	C262.371674,558.803040 263.682037,559.908386 265.000000,561.000000 
	C265.000000,561.000000 264.986359,561.007629 265.072418,561.689575 
	C266.386963,562.779785 267.701508,563.869934 269.000000,565.000000 
	C269.000000,565.000000 269.039795,564.983765 269.101776,565.670715 
	C270.411407,566.748108 271.721069,567.825562 273.051666,568.948669 
	C273.051666,568.948669 273.097717,568.968811 273.120880,569.659424 
	C274.423248,570.744690 275.725616,571.829895 277.036224,572.962036 
	C277.036224,572.962036 277.082764,572.972046 277.097717,573.616760 
	C277.735962,574.410278 278.374176,575.203857 279.181366,576.502258 
	C279.145294,577.335754 279.109222,578.169312 278.725739,579.709290 
	C278.480682,581.805847 278.235657,583.902344 277.510773,586.022644 
	C277.510773,586.022644 277.032471,586.067810 276.279724,586.108582 
	C273.950287,586.984436 271.675507,588.076477 269.277924,588.682800 
	C266.076599,589.492554 263.133423,589.199219 260.769165,586.237915 
	C258.085632,582.876709 255.238205,579.589417 252.085220,576.678040 
	C249.654144,574.433228 249.161240,572.427734 250.271439,569.299805 
	C252.123611,564.081299 249.751511,557.578369 245.233231,554.896973 
	C244.205902,554.287231 242.563950,554.713318 241.204895,554.662659 
	C241.203079,555.903809 241.018112,557.183411 241.267441,558.371826 
	C241.419403,559.096191 242.288422,559.647583 242.752701,560.332642 
	C245.261871,564.035522 245.769547,567.199829 241.836884,570.735962 
	C237.573639,574.569458 234.431519,572.970947 231.038925,569.141907 
	C231.034439,567.426575 231.029953,565.711182 231.063812,563.411682 
	C231.080460,563.021790 231.097122,562.631836 231.605698,561.764221 
	C231.477005,560.254883 231.348312,558.745605 231.219604,557.236267 
	C229.464279,557.827698 227.708954,558.419067 225.898590,559.373230 
	C225.898590,559.373230 225.873993,559.739258 225.325958,560.398254 
	C225.530838,563.980225 225.735733,567.562134 226.037460,571.825439 
	C229.453812,577.295715 234.081284,579.775146 240.701569,578.400146 
	C242.126068,578.104248 244.217316,579.075195 245.440811,580.119446 
	C249.100433,583.243164 252.482101,586.692505 255.371307,590.582214 
	C249.921967,590.736694 244.472641,590.891113 238.227844,590.919312 
	C234.822144,590.276123 231.428589,589.187134 228.007904,589.093872 
	C222.831131,588.952881 219.613205,586.945374 218.070969,581.892700 
	C217.639603,580.479492 215.977097,579.442078 214.879349,578.232239 
	C213.918106,579.856628 212.296021,581.410461 212.113815,583.118042 
	C211.442337,589.409790 213.565140,592.725098 219.910080,594.368408 
	C225.140060,595.723083 230.624435,596.095459 236.294403,597.243652 
	C235.837372,597.822937 235.380356,598.402222 234.308701,599.322815 
	C230.354874,603.257996 229.764359,608.205261 232.776855,612.157043 
	C235.723450,616.022461 239.398117,616.549438 244.577881,614.014648 
	C245.517654,613.554810 246.812500,613.234253 247.769745,613.492737 
	C253.503647,615.040894 259.110443,617.144836 264.908051,618.348450 
	C270.844269,619.580750 276.950714,619.992981 283.652679,620.859863 
	C284.101379,620.907410 284.550079,620.954895 285.265076,621.606506 
	C289.584473,625.561340 290.123016,625.518005 293.487122,620.881470 
	C293.662689,620.848572 293.838287,620.815735 294.917328,620.897156 
	C301.420593,619.929810 307.964783,619.175842 314.416504,617.939514 
	C321.987152,616.488770 329.477417,614.618713 337.024445,612.971069 
	C337.024445,612.971069 337.070587,612.973145 337.165894,613.670105 
	C339.107819,614.102661 341.306854,615.330627 342.938446,614.803162 
	C346.405884,613.682190 349.685638,611.726257 348.835724,606.339661 
	C348.825317,605.891113 348.814911,605.442627 348.901062,604.271790 
	C347.373138,601.877808 345.845245,599.483887 344.604706,597.540161 
	C350.244385,596.072266 356.312592,594.555176 362.331482,592.862671 
	C363.293427,592.592163 364.444824,591.702454 364.806122,590.813477 
	C366.347504,587.020874 367.660065,583.133057 368.989502,579.257141 
	C370.407043,575.124329 371.749512,570.965759 373.269135,566.382996 
	C374.209747,568.247314 374.719177,569.671448 375.566345,570.853516 
	C377.596252,573.685852 381.727875,574.201782 384.834473,571.982605 
	C389.470184,569.542725 391.142181,565.920471 389.481262,560.810486 
	C389.145386,559.777100 389.113953,558.475708 389.413788,557.433533 
	C390.830780,552.508240 392.670715,547.692444 393.869080,542.719421 
	C395.412323,536.315186 396.736755,529.834778 397.693939,523.319397 
	C398.611389,517.074890 403.035126,510.800293 398.032104,504.422424 
	C397.949951,504.317688 398.039734,504.092316 398.008972,503.930969 
	C395.875000,492.761292 393.736969,481.592407 391.395111,469.356934 
	C394.981934,463.816925 392.029114,455.517365 385.016693,454.994019 
	C380.474365,454.655060 376.311859,457.524658 375.192444,461.766693 
	C374.213257,465.477325 376.980377,470.229523 381.011108,472.182526 
	C382.421814,472.866119 384.377533,473.869232 384.710785,475.098755 
	C386.945679,483.343872 388.810150,491.689392 390.784851,499.960938 
	C387.979828,497.453033 385.507935,495.086487 382.872925,492.918182 
	C376.626343,487.777954 373.104370,481.963806 373.778381,473.134583 
	C374.764038,460.222412 370.332642,447.973694 366.246368,435.894348 
	C365.501862,433.693451 363.226501,430.978668 361.147400,430.427917 
	C347.289551,426.756897 333.164215,424.996887 318.778137,426.220673 
	C317.710419,426.311493 316.163910,426.498871 315.602356,425.911926 
	C310.953064,421.052734 306.483551,416.021545 301.990387,411.009705 
	C301.990387,411.009705 302.018097,410.974854 302.785156,410.982300 
	C310.773926,413.005524 318.777618,414.973602 326.731018,417.127472 
	C327.640900,417.373901 328.702454,418.543030 328.955597,419.483093 
	C330.264374,424.343018 333.623596,425.883972 338.057495,424.866791 
	C340.558990,424.292938 344.365204,423.068420 344.840485,421.369568 
	C345.726379,418.202942 345.600311,413.887177 343.991913,411.181030 
	C342.842194,409.246521 337.868561,407.607758 335.852417,408.540771 
	C330.109528,411.198517 325.341675,408.847260 320.135040,407.609467 
	C307.768219,404.669434 295.584076,400.777924 282.456726,402.890015 
	C270.678802,404.785034 258.971771,406.656769 247.769730,410.980682 
	C246.419632,411.501801 244.550507,410.553070 242.913406,410.481781 
	C239.470093,410.331818 235.222977,409.061615 232.807007,410.603455 
	C230.554321,412.041138 229.347153,416.518433 229.321838,419.670898 
	C229.293640,423.184021 232.301132,425.392700 236.016846,425.951965 
	C236.614822,426.041962 237.186096,426.309448 237.958237,426.554749 
	C231.407776,427.551514 225.146255,428.213715 219.044785,429.587067 
	C216.848785,430.081329 213.901688,431.891205 213.246185,433.777802 
	C210.282639,442.307129 208.016724,451.078857 205.367584,460.218536 
	C205.142532,459.373840 204.968597,459.055725 204.990097,458.751404 
	C205.306686,454.272095 202.352722,451.668518 198.860519,450.729279 
	C196.376923,450.061340 192.792023,450.763794 190.642502,452.234344 
	C187.627747,454.296814 187.637558,457.842072 188.186447,461.665070 
	C188.739258,465.515320 187.876205,469.663513 187.133713,473.586548 
	C185.235977,483.613525 183.767685,493.808228 180.748016,503.506256 
	C178.715393,510.034302 179.086624,515.703796 180.871445,521.994690 
	C183.866089,532.549744 186.101929,543.318787 188.966843,553.914001 
	C189.272980,555.046143 191.868805,556.550842 193.001633,556.269409 
	C195.686508,555.602356 196.013397,553.531921 195.031326,550.768127 
	C192.869064,544.683105 191.007935,538.478088 189.341080,532.237366 
	C188.803375,530.224182 189.256775,527.946228 189.256775,524.588379 
	C194.761902,530.198730 199.216415,534.920288 203.923111,539.375488 
	C204.823074,540.227356 207.666153,540.657410 207.971329,540.196167 
	C208.833740,538.892578 209.377472,536.902893 209.037109,535.414368 
	C208.705994,533.966431 207.228378,532.702148 206.075027,531.534119 
	C200.808304,526.200623 195.538300,520.867432 190.140366,515.668152 
	C188.135834,513.737427 187.305069,511.769836 189.380920,509.681427 
	C194.886658,504.142609 200.554184,498.764648 206.326187,493.158722 
	C208.501404,498.439270 210.361694,503.025116 207.215576,508.280090 
	C204.690216,512.498169 206.830109,516.624878 209.173126,520.338379 
	C211.852600,524.585205 219.277481,526.378906 223.954742,524.063171 
	C230.390732,520.876648 232.863617,515.791443 231.174637,510.123810 
	C230.771774,508.772003 231.217712,506.537109 232.154114,505.516815 
	C239.117233,497.929871 246.298782,490.543274 253.421463,483.103058 
	C254.688339,481.779724 256.402588,480.699615 257.176575,479.142487 
	C257.922241,477.642303 257.718079,475.669952 257.931244,473.905060 
	C256.276093,473.947510 254.458832,473.575775 253.009155,474.143219 
	C251.404099,474.771393 250.135208,476.258545 248.441025,477.591003 
	C246.739044,473.554871 244.668335,469.996399 247.907578,465.901825 
	C248.733337,464.858032 249.133575,463.000092 248.891769,461.668274 
	C247.518036,454.101746 250.164871,448.684662 255.585556,443.106689 
	C260.807953,437.732758 265.158966,433.351654 272.952667,437.032990 
	C274.721161,437.868378 277.431885,438.866394 277.729187,440.223297 
	C278.410828,443.334503 280.021332,446.767181 276.482422,449.840485 
	C272.125702,453.624054 268.164703,457.912659 264.423889,462.315399 
	C263.656097,463.219116 264.615997,465.590790 264.779541,467.285797 
	C266.245850,467.083496 268.210327,467.414032 269.093689,466.588165 
	C273.293274,462.661926 277.170715,458.393280 281.216888,454.299988 
	C284.843506,450.631073 294.254974,450.660217 297.879944,454.370453 
	C311.411987,468.220795 324.908905,482.105377 338.429291,495.967102 
	C343.525177,501.191589 350.008728,505.515778 350.000305,514.000000 
	C350.000305,514.000000 349.993408,513.995972 349.982910,514.724426 
	C348.954590,516.342102 348.170502,518.199158 346.857941,519.538208 
	C338.862671,527.694824 330.745911,535.732239 322.673859,543.813599 
	C321.738403,544.750183 320.330048,545.578125 320.028961,546.695618 
	C319.621460,548.208191 320.072662,549.952026 320.155426,551.596680 
	C321.719360,551.495667 323.579193,551.894409 324.781494,551.182617 
	C326.851959,549.956787 328.513123,548.039551 330.636902,546.154297 
	C331.572296,547.587830 332.361023,548.796631 333.053284,550.738953 
	C333.446777,552.444946 333.840271,554.150940 334.288757,556.095398 
	C329.891632,560.170654 326.830688,564.796448 330.987274,571.661438 
	C330.971313,572.102417 330.955353,572.543335 330.359009,573.293091 
	C327.233887,576.859009 324.108765,580.424988 320.997925,584.002441 
	C320.997925,584.002441 320.995636,583.986511 320.555237,584.206970 
	C320.280426,584.408569 320.091644,584.671814 320.001221,584.998596 
M209.663986,568.831238 
	C210.148285,567.903931 210.632568,566.976624 211.741531,565.745178 
	C231.659073,538.053284 258.538605,523.138245 293.210419,520.415466 
	C292.824066,527.566223 292.504639,533.477722 292.105347,540.867432 
	C308.160126,529.848450 322.783478,519.811890 338.169983,509.251587 
	C331.809082,505.656403 326.605530,502.921722 321.611450,499.846893 
	C312.972443,494.527954 304.480896,488.969879 295.865051,483.612518 
	C295.209961,483.205200 293.838257,483.275604 293.210205,483.713196 
	C292.709106,484.062256 292.709320,485.308716 292.701691,486.158752 
	C292.658844,490.935242 292.681030,495.712341 292.681030,500.613922 
	C290.832001,501.071106 288.980682,501.679260 287.080688,501.975037 
	C270.121307,504.615509 254.073776,509.899628 239.632065,519.261780 
	C229.014572,526.144775 219.968796,534.747253 212.159134,544.880371 
	C202.476120,557.444092 196.558365,571.255066 194.180954,587.457092 
	C193.232239,600.363342 194.141357,613.137756 197.174515,625.718140 
	C197.554108,627.292603 198.962402,628.619019 199.894058,630.060425 
	C200.354462,629.849854 200.814865,629.639282 201.275269,629.428711 
	C200.461380,623.957397 199.647507,618.486084 198.957336,612.248352 
	C198.907349,609.504822 198.857376,606.761292 198.965302,603.187683 
	C200.653412,596.204285 202.352798,589.223511 204.021545,582.235474 
	C204.430634,580.522461 204.739456,578.785461 205.016800,577.007812 
	C205.016800,577.007812 205.064682,577.087830 205.712112,576.801575 
	C206.835236,574.218018 207.958344,571.634521 209.010925,569.004578 
	C209.010925,569.004578 209.055084,569.076477 209.663986,568.831238 
M615.996094,540.230469 
	C615.996704,532.234497 615.863281,524.234924 616.076965,516.244690 
	C616.143860,513.742432 616.846313,511.145020 617.786072,508.803131 
	C619.423523,504.722504 624.922302,501.235748 628.178345,502.067749 
	C634.835693,503.768799 637.528259,506.311035 637.127075,512.615723 
	C636.662537,519.915771 637.008789,527.267517 637.008423,534.596863 
	C637.007812,545.269775 637.008911,545.143799 647.704407,545.067566 
	C650.988281,545.044067 652.083252,543.983093 652.043579,540.746643 
	C651.911072,529.920349 652.057861,519.090881 651.979370,508.263489 
	C651.908386,498.463867 642.200012,488.182281 632.499268,488.670776 
	C624.490906,489.074036 618.513306,491.926483 613.191223,497.113647 
	C599.300476,486.039581 592.184631,485.775513 579.269104,495.657898 
	C578.440918,490.232117 576.015320,488.681793 569.482910,488.956604 
	C564.331787,489.173309 565.013550,492.805267 565.010071,496.082977 
	C564.994629,510.742340 564.967651,525.401917 565.054016,540.060791 
	C565.062988,541.591125 565.646729,544.376587 566.210449,544.441650 
	C569.962036,544.874451 573.996216,545.449829 577.473816,544.415833 
	C578.905762,543.989990 579.783142,539.717896 579.881226,537.155823 
	C580.186523,529.179138 579.745911,521.172974 580.083557,513.198914 
	C580.340759,507.125793 585.871887,501.899780 591.109009,502.001770 
	C596.601562,502.108704 600.994385,507.526520 600.997742,514.203186 
	C601.001099,520.866516 600.903748,527.531616 601.022888,534.192871 
	C601.246277,546.685730 598.526123,544.791199 612.263123,545.028687 
	C615.137817,545.078430 616.231201,543.893616 615.996094,540.230469 
M755.934204,534.372803 
	C754.734680,537.677063 753.535156,540.981262 752.078369,544.994080 
	C757.661438,544.994080 761.646423,545.111694 765.616333,544.918518 
	C766.731934,544.864258 768.365234,544.172974 768.794067,543.299194 
	C770.356201,540.116577 772.123047,536.827820 772.651794,533.399963 
	C773.238159,529.599121 775.230469,528.965820 778.312439,528.978333 
	C784.472046,529.003418 790.632019,528.970154 796.791809,528.964478 
	C804.878418,528.956970 806.688660,530.004395 808.776367,537.706055 
	C809.885376,541.797241 810.573120,545.417297 816.013977,545.003357 
	C819.961670,544.703003 823.934326,544.731689 828.416016,544.598145 
	C822.164001,530.369812 816.381653,517.374878 810.743347,504.317719 
	C807.340149,496.436615 804.013733,488.515472 800.929016,480.505951 
	C798.634705,474.548523 789.769226,470.736115 783.988647,473.727081 
	C782.806702,474.338654 781.694641,475.625000 781.160278,476.863525 
	C776.696289,487.207977 772.499329,497.668610 767.972229,507.984619 
	C764.190491,516.602173 760.072632,525.072144 755.934204,534.372803 
M665.001648,542.499634 
	C665.001648,548.925171 665.001648,555.350708 665.001648,561.994629 
	C668.055298,561.994629 670.529907,561.995667 673.004517,561.994446 
	C679.839172,561.990906 680.113831,561.734741 679.992676,554.780579 
	C679.970276,553.494324 679.496460,552.216125 679.473083,550.929749 
	C679.401184,546.983582 679.446960,543.035217 679.446960,539.984314 
	C683.738098,541.891663 687.788940,544.234863 692.151367,545.522644 
	C702.481079,548.571899 718.230774,539.588867 720.885864,529.279968 
	C722.833740,521.717102 723.461365,514.141968 721.060364,506.388916 
	C718.735718,498.882294 709.013306,489.517303 701.839844,489.036072 
	C693.573669,488.481598 685.342224,488.339630 679.443848,496.339600 
	C678.324463,489.470123 676.939148,488.609222 669.486938,488.983337 
	C664.015137,489.257996 665.022278,493.234283 665.013428,496.564697 
	C664.973633,511.542969 664.999512,526.521423 665.001648,542.499634 
M432.032379,524.308228 
	C432.838959,525.861267 433.596802,527.441956 434.460083,528.962830 
	C439.847748,538.454468 447.962891,543.494934 458.808014,545.139343 
	C470.730469,546.947083 481.302704,545.542236 490.793671,537.252991 
	C493.753662,534.667847 493.570038,532.171875 492.402618,530.101624 
	C489.620148,525.167114 485.075439,523.808044 481.731232,525.995728 
	C479.693329,527.328857 477.657959,528.695007 475.499054,529.809082 
	C462.239227,536.651672 447.780548,527.020935 445.122620,513.338501 
	C443.510559,505.039795 446.354095,497.424408 453.206818,492.517029 
	C460.571899,487.242676 469.057861,487.480194 477.326599,490.887421 
	C479.963562,491.974030 482.492035,494.841095 484.860626,494.622559 
	C487.096466,494.416229 488.923065,491.043030 491.168915,489.387451 
	C494.771027,486.732086 493.655396,483.800140 491.136444,481.834869 
	C477.146332,470.919647 460.966553,470.329132 446.692047,478.370178 
	C431.065979,487.172668 424.432831,506.861481 432.032379,524.308228 
M506.555878,539.028503 
	C511.322937,543.613892 517.218689,545.854370 523.627930,545.862671 
	C528.746155,545.869263 534.263916,545.676392 538.897705,543.813843 
	C547.200012,540.476685 552.361084,533.811951 554.683899,524.909912 
	C556.844971,516.627380 555.615845,508.677612 551.677185,501.590393 
	C543.263062,486.449982 520.183594,484.816620 508.505829,494.183838 
	C495.900848,504.294800 491.622742,524.950134 506.555878,539.028503 
M849.026978,520.499878 
	C849.026978,505.070984 849.026978,489.642120 849.026978,474.016327 
	C844.942932,474.016327 841.442383,474.264954 837.992676,473.952118 
	C833.869629,473.578217 832.911438,475.335785 832.943420,479.159332 
	C833.095398,497.320282 832.922485,515.483704 833.020508,533.645447 
	C833.091309,546.753784 830.784302,544.726013 844.852661,545.022583 
	C848.324341,545.095764 849.092896,543.538574 849.033936,540.494568 
	C848.911499,534.165344 849.015869,527.831726 849.026978,520.499878 
M733.002563,494.500000 
	C733.002380,509.815521 733.083557,525.131775 732.940125,540.445984 
	C732.907715,543.910461 733.992126,545.417908 737.519653,545.020264 
	C738.999084,544.853516 740.522827,544.883179 742.009216,545.015991 
	C745.093872,545.291504 746.135437,543.890015 746.037109,540.914917 
	C745.883179,536.258484 745.999084,531.593201 745.999084,526.931641 
	C745.999084,511.782593 745.998291,496.633575 745.997986,481.484528 
	C745.997742,469.776550 745.997742,469.772064 734.430603,470.037506 
	C733.992554,470.047546 733.560242,470.310333 733.002563,470.496246 
	C733.002563,478.219574 733.002563,485.859772 733.002563,494.500000 
z"/>
<path fill="#20282F" opacity="1.000000" stroke="none" 
	d="
M350.007721,514.007507 
	C350.008728,505.515778 343.525177,501.191589 338.429291,495.967102 
	C324.908905,482.105377 311.411987,468.220795 297.879944,454.370453 
	C294.254974,450.660217 284.843506,450.631073 281.216888,454.299988 
	C277.170715,458.393280 273.293274,462.661926 269.093689,466.588165 
	C268.210327,467.414032 266.245850,467.083496 264.779541,467.285797 
	C264.615997,465.590790 263.656097,463.219116 264.423889,462.315399 
	C268.164703,457.912659 272.125702,453.624054 276.482422,449.840485 
	C280.021332,446.767181 278.410828,443.334503 277.729187,440.223297 
	C277.431885,438.866394 274.721161,437.868378 272.952667,437.032990 
	C265.158966,433.351654 260.807953,437.732758 255.585556,443.106689 
	C250.164871,448.684662 247.518036,454.101746 248.891769,461.668274 
	C249.133575,463.000092 248.733337,464.858032 247.907578,465.901825 
	C244.668335,469.996399 246.739044,473.554871 248.441025,477.591003 
	C250.135208,476.258545 251.404099,474.771393 253.009155,474.143219 
	C254.458832,473.575775 256.276093,473.947510 257.931244,473.905060 
	C257.718079,475.669952 257.922241,477.642303 257.176575,479.142487 
	C256.402588,480.699615 254.688339,481.779724 253.421463,483.103058 
	C246.298782,490.543274 239.117233,497.929871 232.154114,505.516815 
	C231.217712,506.537109 230.771774,508.772003 231.174637,510.123810 
	C232.863617,515.791443 230.390732,520.876648 223.954742,524.063171 
	C219.277481,526.378906 211.852600,524.585205 209.173126,520.338379 
	C206.830109,516.624878 204.690216,512.498169 207.215576,508.280090 
	C210.361694,503.025116 208.501404,498.439270 206.326187,493.158722 
	C200.554184,498.764648 194.886658,504.142609 189.380920,509.681427 
	C187.305069,511.769836 188.135834,513.737427 190.140366,515.668152 
	C195.538300,520.867432 200.808304,526.200623 206.075027,531.534119 
	C207.228378,532.702148 208.705994,533.966431 209.037109,535.414368 
	C209.377472,536.902893 208.833740,538.892578 207.971329,540.196167 
	C207.666153,540.657410 204.823074,540.227356 203.923111,539.375488 
	C199.216415,534.920288 194.761902,530.198730 189.256775,524.588379 
	C189.256775,527.946228 188.803375,530.224182 189.341080,532.237366 
	C191.007935,538.478088 192.869064,544.683105 195.031326,550.768127 
	C196.013397,553.531921 195.686508,555.602356 193.001633,556.269409 
	C191.868805,556.550842 189.272980,555.046143 188.966843,553.914001 
	C186.101929,543.318787 183.866089,532.549744 180.871445,521.994690 
	C179.086624,515.703796 178.715393,510.034302 180.748016,503.506256 
	C183.767685,493.808228 185.235977,483.613525 187.133713,473.586548 
	C187.876205,469.663513 188.739258,465.515320 188.186447,461.665070 
	C187.637558,457.842072 187.627747,454.296814 190.642502,452.234344 
	C192.792023,450.763794 196.376923,450.061340 198.860519,450.729279 
	C202.352722,451.668518 205.306686,454.272095 204.990097,458.751404 
	C204.968597,459.055725 205.142532,459.373840 205.367584,460.218536 
	C208.016724,451.078857 210.282639,442.307129 213.246185,433.777802 
	C213.901688,431.891205 216.848785,430.081329 219.044785,429.587067 
	C225.146255,428.213715 231.407776,427.551514 237.958237,426.554749 
	C237.186096,426.309448 236.614822,426.041962 236.016846,425.951965 
	C232.301132,425.392700 229.293640,423.184021 229.321838,419.670898 
	C229.347153,416.518433 230.554321,412.041138 232.807007,410.603455 
	C235.222977,409.061615 239.470093,410.331818 242.913406,410.481781 
	C244.550507,410.553070 246.419632,411.501801 247.769730,410.980682 
	C258.971771,406.656769 270.678802,404.785034 282.456726,402.890015 
	C295.584076,400.777924 307.768219,404.669434 320.135040,407.609467 
	C325.341675,408.847260 330.109528,411.198517 335.852417,408.540771 
	C337.868561,407.607758 342.842194,409.246521 343.991913,411.181030 
	C345.600311,413.887177 345.726379,418.202942 344.840485,421.369568 
	C344.365204,423.068420 340.558990,424.292938 338.057495,424.866791 
	C333.623596,425.883972 330.264374,424.343018 328.955597,419.483093 
	C328.702454,418.543030 327.640900,417.373901 326.731018,417.127472 
	C318.777618,414.973602 310.773926,413.005524 302.275879,410.779541 
	C301.419983,410.595154 301.073425,410.613586 300.726837,410.631989 
	C301.137756,410.768799 301.548706,410.905609 301.959625,411.042419 
	C306.483551,416.021545 310.953064,421.052734 315.602356,425.911926 
	C316.163910,426.498871 317.710419,426.311493 318.778137,426.220673 
	C333.164215,424.996887 347.289551,426.756897 361.147400,430.427917 
	C363.226501,430.978668 365.501862,433.693451 366.246368,435.894348 
	C370.332642,447.973694 374.764038,460.222412 373.778381,473.134583 
	C373.104370,481.963806 376.626343,487.777954 382.872925,492.918182 
	C385.507935,495.086487 387.979828,497.453033 390.784851,499.960938 
	C388.810150,491.689392 386.945679,483.343872 384.710785,475.098755 
	C384.377533,473.869232 382.421814,472.866119 381.011108,472.182526 
	C376.980377,470.229523 374.213257,465.477325 375.192444,461.766693 
	C376.311859,457.524658 380.474365,454.655060 385.016693,454.994019 
	C392.029114,455.517365 394.981934,463.816925 391.395111,469.356934 
	C393.736969,481.592407 395.875000,492.761292 398.008972,503.930969 
	C398.039734,504.092316 397.949951,504.317688 398.032104,504.422424 
	C403.035126,510.800293 398.611389,517.074890 397.693939,523.319397 
	C396.736755,529.834778 395.412323,536.315186 393.869080,542.719421 
	C392.670715,547.692444 390.830780,552.508240 389.413788,557.433533 
	C389.113953,558.475708 389.145386,559.777100 389.481262,560.810486 
	C391.142181,565.920471 389.470184,569.542725 384.078491,572.000977 
	C376.970093,572.315918 376.402222,567.350220 375.105103,562.755920 
	C375.053802,562.315735 375.033173,562.139709 375.003326,561.705994 
	C374.986084,561.276672 374.978058,561.105042 375.024475,560.578003 
	C375.999481,559.351013 376.828857,557.865967 377.856323,557.713135 
	C382.575500,557.011230 383.672729,553.233704 384.806091,549.727051 
	C386.472412,544.571655 387.695953,539.273071 389.357727,534.122681 
	C390.020752,533.928528 390.434082,533.647156 390.847412,533.365784 
	C390.267456,532.910950 389.687500,532.456116 389.178223,531.782837 
	C389.409027,531.287903 389.637939,531.091736 390.265625,530.928528 
	C391.042328,530.204712 391.488953,529.528198 391.889069,528.581787 
	C391.558594,527.864014 391.274628,527.416199 390.881836,526.772278 
	C390.590546,526.330566 390.359222,526.146240 389.954529,525.807617 
	C389.622711,525.315674 389.352753,525.131042 388.816345,524.807739 
	C384.999542,527.842224 381.386444,531.106995 377.773315,534.371765 
	C378.181488,534.581177 378.589630,534.790588 378.853333,535.299438 
	C377.125092,537.728027 375.541290,539.857239 373.648499,541.898560 
	C372.772034,544.698730 372.204559,547.586853 371.637085,550.474915 
	C371.931305,550.498596 372.225525,550.522278 372.519775,550.545898 
	C373.000214,548.705139 373.480682,546.864380 374.095154,545.304749 
	C374.126007,548.724426 374.022858,551.862976 373.607819,555.067627 
	C373.502930,556.088623 373.709900,557.043518 373.901917,558.364441 
	C373.560455,560.153320 373.233948,561.576111 372.560608,563.087463 
	C371.474548,564.777588 370.560669,566.323303 370.026917,567.990723 
	C367.952820,574.470093 366.097076,581.020386 363.965851,587.480225 
	C362.605530,591.603333 360.133179,592.519165 354.970093,590.789490 
	C363.184296,587.193420 365.280396,580.844788 363.976807,572.528687 
	C364.352814,570.109497 364.710175,568.075439 365.288269,566.249390 
	C365.818268,567.309265 366.127502,568.161133 366.702271,569.744507 
	C367.300842,567.380737 367.709351,565.767517 368.304169,563.418518 
	C366.998016,564.300171 366.479156,564.650452 365.971375,564.578125 
	C366.895782,560.733337 367.809113,557.310974 368.917816,553.850342 
	C369.201416,553.716187 369.379425,553.556580 369.363800,553.534546 
	C369.220459,553.332764 369.043579,553.154907 368.861938,552.589966 
	C368.237915,550.496887 367.628387,548.783936 366.979736,546.791748 
	C363.630188,549.680481 360.319702,552.848511 357.003479,556.009521 
	C356.997711,556.002441 357.013641,556.004517 356.799988,556.123535 
	C356.320160,556.446533 356.126740,556.704956 356.002808,557.010376 
	C355.999542,557.002869 356.018250,557.013245 355.640198,557.018433 
	C351.850342,557.508179 351.004242,559.724548 351.416595,562.760681 
	C352.655548,571.882874 347.153748,577.224670 338.274780,575.644226 
	C336.962708,575.410706 335.032471,575.338013 334.233612,576.089478 
	C330.118347,579.960815 326.209076,584.061707 322.402252,588.241333 
	C321.647888,589.069580 321.275940,590.660400 321.472504,591.767273 
	C321.572174,592.328491 323.327362,592.923828 324.342896,592.939636 
	C329.999908,593.027588 335.660034,592.972900 341.318146,592.895935 
	C342.737732,592.876587 344.153748,592.595886 345.571411,592.435303 
	C345.673309,592.912659 345.775208,593.390015 345.877106,593.867432 
	C344.967346,594.242432 344.084198,594.845703 343.143524,594.955200 
	C337.106323,595.657959 331.056519,596.252563 324.672241,596.889893 
	C323.884216,596.855469 323.434784,596.813965 322.867157,596.428711 
	C316.469543,593.521423 306.661255,600.123535 305.006287,608.012451 
	C304.997223,608.003174 305.021332,608.007507 304.806061,608.125122 
	C304.322418,608.445801 304.127563,608.704285 304.003540,609.010132 
	C304.000824,609.002075 304.022369,609.014221 303.681335,609.052063 
	C301.719696,610.323120 300.099060,611.556335 298.161560,613.030701 
	C299.837189,613.887756 300.912415,614.437805 301.708893,614.993103 
	C300.957367,615.096558 300.484619,615.194641 300.011902,615.292725 
	C300.095154,615.511169 300.178436,615.729553 300.261719,615.947998 
	C300.843506,615.635681 301.425293,615.323364 302.449554,615.008362 
	C312.345856,612.684387 321.827881,610.466675 331.218475,607.913025 
	C332.414734,607.587646 333.412048,605.628662 334.025543,604.219299 
	C336.631042,598.233643 342.224365,597.533203 346.374176,602.739014 
	C347.055359,603.593445 347.988037,604.247437 348.804474,604.994080 
	C348.814911,605.442627 348.825317,605.891113 348.489044,606.760376 
	C345.876740,611.835632 342.280579,613.946838 337.070587,612.973145 
	C337.070587,612.973145 337.024445,612.971069 336.848145,612.663635 
	C335.156311,611.885376 333.488739,610.746155 332.149445,611.050659 
	C322.376678,613.273071 312.663391,615.760010 302.946136,618.221924 
	C299.945068,618.982239 296.989990,619.924133 294.013855,620.782837 
	C293.838287,620.815735 293.662689,620.848572 292.868835,620.945679 
	C289.833282,621.007446 287.416046,621.004944 284.998779,621.002441 
	C284.550079,620.954895 284.101379,620.907410 283.196289,620.466309 
	C282.367004,619.765503 282.036072,619.273315 281.615082,619.177856 
	C270.710419,616.702759 259.809998,614.204163 248.868683,611.900513 
	C247.299271,611.570129 245.513168,612.442017 243.847351,612.358582 
	C240.878418,612.209839 237.528107,612.480408 235.114029,611.157837 
	C233.674026,610.368896 233.017014,606.789490 233.296844,604.631653 
	C233.543259,602.731812 235.580566,601.064087 236.924088,599.155945 
	C236.200684,599.092834 235.561996,599.037109 234.923309,598.981445 
	C235.380356,598.402222 235.837372,597.822937 236.059799,596.742004 
	C234.323013,595.284607 232.820831,594.328857 231.318649,593.373108 
	C231.424667,593.012207 231.530670,592.651367 231.636673,592.290527 
	C234.683990,592.542358 237.731308,592.794250 241.649811,593.118103 
	C240.246857,592.011047 239.635071,591.528259 239.023300,591.045532 
	C244.472641,590.891113 249.921967,590.736694 255.941788,590.094604 
	C258.016235,589.579285 259.544617,589.368591 261.018707,589.565063 
	C263.464386,589.891174 265.908875,590.983704 268.291748,590.824280 
	C271.046875,590.640015 273.772736,589.555176 276.415314,588.596680 
	C276.867310,588.432800 276.838928,586.944336 277.032471,586.067810 
	C277.032471,586.067810 277.510773,586.022644 278.057617,585.836792 
	C279.711182,583.501892 282.133026,581.445618 279.073181,579.002808 
	C279.109222,578.169312 279.145294,577.335754 279.366821,576.213684 
	C278.729095,574.940735 277.905914,573.956421 277.082764,572.972046 
	C277.082764,572.972046 277.036224,572.962036 276.976379,572.610779 
	C275.643616,571.162598 274.370667,570.065735 273.097717,568.968811 
	C273.097717,568.968811 273.051666,568.948669 272.983398,568.598389 
	C271.623322,567.160034 270.331573,566.071899 269.039795,564.983765 
	C269.039795,564.983765 269.000000,565.000000 268.957642,564.644226 
	C267.605621,563.194824 266.295990,562.101257 264.986359,561.007629 
	C264.986359,561.007629 265.000000,561.000000 264.955627,560.664246 
	C263.598938,559.223877 262.286621,558.119263 260.974274,557.014648 
	C260.974274,557.014648 261.000000,557.000000 260.955139,556.668701 
	C259.599396,555.229187 258.288452,554.120850 256.977539,553.012573 
	C256.977539,553.012573 257.000122,553.000000 256.955444,552.667480 
	C255.599106,551.227844 254.287445,550.120667 252.975800,549.013489 
	C252.975800,549.013489 253.000610,549.000000 252.955887,548.669128 
	C251.614822,547.222717 250.318481,546.107178 249.022141,544.991638 
	C249.022141,544.991638 248.999268,545.002441 249.014526,544.634949 
	C250.703400,539.781738 252.516953,543.135132 253.798340,544.386353 
	C261.353119,551.763306 268.737885,559.314148 276.274414,566.710144 
	C277.625610,568.036133 279.418091,568.912537 281.006805,569.996521 
	C281.006805,569.996521 281.000000,570.000000 281.043518,570.333130 
	C282.053101,571.446350 283.019196,572.226440 283.985291,573.006531 
	C283.985291,573.006531 284.000885,573.000000 284.080933,573.356934 
	C288.931244,575.478088 295.607758,574.127869 298.598419,570.951233 
	C301.210632,568.176575 303.936707,565.506165 306.678497,562.858093 
	C307.706116,561.865601 308.919983,561.065796 310.048920,560.178162 
	C310.301575,560.497925 310.554230,560.817688 310.806915,561.137451 
	C307.026337,565.435059 303.176758,569.675110 299.512604,574.069824 
	C298.571533,575.198486 297.575378,576.871704 297.693542,578.197693 
	C298.481720,587.040466 298.578888,587.027771 307.113007,589.539185 
	C308.851074,590.050598 310.647430,590.445862 312.291931,591.176147 
	C315.658447,592.670959 316.943695,591.335083 317.015533,588.031311 
	C317.015533,588.031311 317.003662,587.994995 317.382202,587.988220 
	C318.504547,586.983154 319.248352,585.984863 319.992188,584.986572 
	C319.992188,584.986572 320.001221,584.998596 320.208008,584.878540 
	C320.680176,584.555176 320.873779,584.297852 320.995636,583.986511 
	C320.995636,583.986511 320.997925,584.002441 321.335327,583.957092 
	C325.109955,580.751892 328.553345,577.598511 331.933563,574.378845 
	C331.991974,574.323242 331.287750,573.466980 330.939392,572.984314 
	C330.955353,572.543335 330.971313,572.102417 331.241211,571.336060 
	C331.495117,571.010681 331.983795,571.021729 332.040222,571.133545 
	C332.096619,571.245300 332.416443,571.252380 332.416443,571.252380 
	C332.416443,571.252380 332.022461,570.983032 332.017456,570.534180 
	C332.108490,565.854858 331.401276,561.734192 335.023041,558.002319 
	C337.342102,555.612854 336.174622,552.138550 333.149780,550.005432 
	C332.361023,548.796631 331.572296,547.587830 330.636902,546.154297 
	C328.513123,548.039551 326.851959,549.956787 324.781494,551.182617 
	C323.579193,551.894409 321.719360,551.495667 320.155426,551.596680 
	C320.072662,549.952026 319.621460,548.208191 320.028961,546.695618 
	C320.330048,545.578125 321.738403,544.750183 322.673859,543.813599 
	C330.745911,535.732239 338.862671,527.694824 346.857941,519.538208 
	C348.170502,518.199158 348.954590,516.342102 350.216034,514.196411 
	C350.472290,513.149170 350.495422,512.629944 350.518555,512.110718 
	C350.348297,512.113831 350.178009,512.116943 350.007721,512.120117 
	C350.007721,512.749207 350.007721,513.378357 350.007721,514.007507 
M389.765167,522.096802 
	C389.765167,522.096802 389.753387,522.411621 389.753387,522.411621 
	C389.753387,522.411621 390.007263,522.005249 390.234161,521.901672 
	C390.234161,521.901672 390.247345,521.591614 390.247345,521.591614 
	C390.247345,521.591614 389.994904,521.992737 389.765167,522.096802 
M304.417236,600.763428 
	C304.679260,600.563965 304.874115,600.312439 305.000122,600.000000 
	C305.000122,600.000000 305.010681,600.004822 305.686768,599.915649 
	C309.871246,597.352234 309.973907,597.143494 308.038391,594.502319 
	C308.028137,594.334045 308.017883,594.165833 308.531494,593.918030 
	C308.678864,593.841248 308.872955,593.798401 308.960205,593.678040 
	C309.044189,593.562134 309.067871,593.237488 309.032654,593.223816 
	C304.040131,591.279114 299.352417,588.286499 293.507904,591.368652 
	C291.428040,592.465454 287.818359,592.617310 285.811920,591.530273 
	C279.823486,588.285767 275.263733,592.156372 270.172516,593.813843 
	C270.798187,593.881531 271.423859,593.949219 271.780151,594.477112 
	C271.552368,595.309082 271.324585,596.140991 270.533844,597.053467 
	C270.298279,597.392883 269.808533,597.980469 269.863190,598.036499 
	C275.737366,604.052734 281.624634,610.057251 287.609283,615.962891 
	C288.187439,616.533447 289.932678,616.956116 290.210632,616.638245 
	C293.558319,612.809509 296.731476,608.828186 300.171112,604.486145 
	C300.363617,604.236450 300.609589,604.062256 301.601562,603.907349 
	C302.400452,602.937256 303.199310,601.967102 304.000000,601.000000 
	C304.000000,601.000000 303.997162,600.999329 304.417236,600.763428 
M369.972443,526.553223 
	C369.815002,526.336182 369.657562,526.119080 369.500153,525.902039 
	C369.447571,526.032227 369.312897,526.219177 369.356750,526.282654 
	C369.537842,526.544678 369.773041,526.769348 369.992371,527.758545 
	C370.075989,528.914368 370.159576,530.070129 370.243195,531.225952 
	C370.823547,531.167908 371.403870,531.109863 372.493652,530.824890 
	C372.994873,530.594788 373.496094,530.364746 374.045258,530.561890 
	C374.189911,530.784302 374.334564,531.006714 374.479187,531.229126 
	C374.664368,530.884094 374.849579,530.539062 375.308533,529.571289 
	C379.525604,525.156921 383.760925,520.759827 387.952850,516.321716 
	C390.469147,513.657654 391.579468,510.983429 388.381897,507.874359 
	C375.756317,495.598297 363.243286,483.206116 350.552948,470.997955 
	C349.574036,470.056244 347.394958,469.613434 346.026733,469.954285 
	C339.980316,471.460754 336.760956,475.337891 336.148499,481.532349 
	C336.029724,482.733704 336.282135,484.409973 337.050720,485.188629 
	C341.520752,489.716858 346.388336,493.863251 350.720856,498.512115 
	C352.889435,500.839081 354.717896,501.052856 357.657196,500.355957 
	C366.445038,498.272461 374.583130,505.653717 371.552460,514.028687 
	C369.617432,519.375916 370.757355,523.365173 371.422394,527.743835 
	C370.952301,527.491821 370.482208,527.239807 369.972443,526.553223 
M347.097260,556.241516 
	C347.097260,556.241516 347.414246,556.250854 347.414246,556.250854 
	C347.414246,556.250854 347.015137,555.988464 347.008667,555.480469 
	C347.007233,555.311096 347.005829,555.141785 347.750336,554.983337 
	C348.496185,554.972961 349.242035,554.962585 350.063995,555.506592 
	C350.545990,555.644714 351.293060,556.054688 351.471191,555.880981 
	C355.689636,551.768860 359.882965,547.628479 363.957764,543.375427 
	C364.354034,542.961853 363.949219,541.780762 364.255646,540.372864 
	C367.239960,538.521667 366.421661,535.718140 366.534363,533.365662 
	C367.018799,533.089355 367.955902,532.720764 367.921143,532.550415 
	C367.164093,528.838501 366.298889,525.148499 365.223053,520.442017 
	C364.485260,521.990234 364.231354,522.523071 363.143463,523.034851 
	C361.043182,522.708984 358.950439,522.215759 356.839752,522.120239 
	C355.581421,522.063354 353.886475,522.211426 353.089142,522.987671 
	C348.832245,527.132080 345.064392,531.813599 340.586548,535.683472 
	C337.774170,538.113953 336.594055,540.551819 336.793579,544.187561 
	C336.726105,544.293945 336.577606,544.459778 336.604736,544.496765 
	C336.747284,544.691101 336.934265,544.852905 337.151672,545.603943 
	C337.141174,545.990173 337.130676,546.376404 337.050995,547.384094 
	C337.663574,547.935181 338.276154,548.486328 338.940765,549.702026 
	C338.937378,550.146301 338.933960,550.590576 338.457031,551.516296 
	C338.689453,557.967773 343.702118,555.354919 347.097260,556.241516 
M279.241608,613.369507 
	C279.552826,613.361694 279.864014,613.353943 280.175232,613.346130 
	C279.787567,613.226685 279.399872,613.107239 278.917603,612.304871 
	C273.799164,606.912048 268.916138,601.262878 263.452026,596.246582 
	C261.107971,594.094604 257.611084,593.489502 255.168564,597.990906 
	C253.778168,597.965881 252.387756,597.940918 250.837082,597.265442 
	C249.558945,597.482544 248.280792,597.699585 246.386627,597.981506 
	C245.974365,598.004333 245.562119,598.027161 244.574158,598.235657 
	C244.140182,598.477051 243.706207,598.718506 243.272232,598.959900 
	C245.110977,602.210938 246.237900,607.370544 248.916565,608.369629 
	C258.495575,611.942200 268.600800,614.103821 279.703308,617.124756 
	C278.147461,614.753174 277.554596,613.849487 276.968048,612.475037 
	C276.968048,612.475037 276.920258,612.006714 277.458923,612.216492 
	C277.970306,612.481201 278.481720,612.745911 279.241608,613.369507 
M322.490204,443.009399 
	C318.180023,437.602783 313.405884,433.485138 305.869598,437.013885 
	C305.726746,437.080780 305.509857,437.007721 305.382996,437.087769 
	C303.945404,437.995026 301.216949,439.095428 301.313385,439.808929 
	C301.740326,442.967133 297.825928,445.848541 301.655365,449.373627 
	C310.454559,457.473602 318.679810,466.196320 327.166992,474.637177 
	C327.915833,475.381897 328.876953,475.913177 329.714020,476.524933 
	C333.203918,472.364532 333.920135,468.682190 330.783356,464.078827 
	C329.302155,461.905151 328.481354,457.880249 329.506592,455.705505 
	C331.367401,451.758331 329.685333,449.924377 327.235260,447.727264 
	C325.752228,446.397339 324.400757,444.920685 322.490204,443.009399 
M365.604614,475.892151 
	C368.035217,475.699463 368.316071,475.462891 367.809906,473.089844 
	C365.508698,462.301025 363.204376,451.511658 360.712921,440.766144 
	C360.391632,439.380463 359.217987,437.511383 358.024445,437.115021 
	C346.954193,433.438416 335.614563,431.778961 323.193848,433.431091 
	C325.891113,436.315887 328.313934,438.709229 330.505463,441.298340 
	C333.632385,444.992554 336.787811,446.998474 342.309448,446.245514 
	C349.216827,445.303589 355.313995,452.518738 353.632446,459.136353 
	C352.679352,462.887238 354.099915,464.727966 356.347321,466.841156 
	C359.322083,469.638123 362.242371,472.492981 365.604614,475.892151 
M225.379181,435.721649 
	C220.282928,435.927521 218.337738,439.301727 217.255325,443.662964 
	C216.061264,448.473938 214.383438,453.193542 213.566833,458.062042 
	C212.585373,463.913330 212.289948,469.879669 211.599380,476.776031 
	C216.236450,472.478882 219.995056,469.275726 223.368713,465.708466 
	C224.460144,464.554352 225.146637,462.383606 224.984100,460.782867 
	C224.104446,452.119873 230.954987,445.075043 239.563889,446.049347 
	C240.795776,446.188782 242.590378,446.601532 243.218124,445.976868 
	C247.114670,442.099396 250.752472,437.961823 254.476120,433.910583 
	C254.267807,433.298309 254.059494,432.686066 253.851181,432.073822 
	C244.618652,433.189026 235.386139,434.304230 225.379181,435.721649 
M214.849609,483.645477 
	C210.659012,488.811584 213.614594,493.917206 215.691574,498.524750 
	C216.401993,500.100739 220.302719,500.675323 222.807999,500.858795 
	C224.612213,500.990936 226.870544,500.148743 228.307205,498.980072 
	C231.259476,496.578522 233.744568,493.611969 236.514832,490.975555 
	C243.247299,484.568451 243.044479,483.764954 239.724319,473.769287 
	C238.300903,469.484009 231.303528,468.270020 228.051971,471.345825 
	C223.865265,475.306305 219.604202,479.188232 214.849609,483.645477 
M285.203522,413.774170 
	C280.539978,418.666931 275.876404,423.559692 270.956848,428.721069 
	C276.530975,431.364105 280.954132,434.126160 286.517456,430.500183 
	C288.232697,429.382294 292.035889,429.381042 293.641327,430.559753 
	C299.207092,434.646179 303.010284,430.382965 308.645142,428.678070 
	C301.800812,422.128906 295.660858,416.253754 289.537476,410.394470 
	C288.052460,411.503174 286.864044,412.390472 285.203522,413.774170 
M201.150604,487.567596 
	C202.443268,485.432251 204.636230,483.383392 204.851318,481.144501 
	C205.388840,475.549408 205.028595,469.868073 205.028595,464.387115 
	C198.040222,465.952911 194.909515,471.032959 193.121964,477.208862 
	C191.974670,481.172638 190.993637,485.194092 190.156845,489.235046 
	C189.506454,492.375793 189.194153,495.586578 188.731583,498.766235 
	C189.259903,499.101898 189.788223,499.437561 190.316544,499.773224 
	C193.823044,495.932922 197.329544,492.092590 201.150604,487.567596 
M250.565628,425.993439 
	C252.563553,425.991302 254.561676,426.006714 256.559326,425.982117 
	C258.591339,425.957123 261.303284,426.718414 262.536377,425.702179 
	C267.781464,421.379730 272.588440,416.525635 277.555359,411.865662 
	C272.998566,411.703583 268.780029,411.821228 264.963928,413.120667 
	C256.928833,415.856720 246.540955,414.848175 243.339844,425.996399 
	C245.359024,425.996399 247.503799,425.996399 250.565628,425.993439 
M220.137970,506.181763 
	C214.528030,506.857239 212.380875,509.206390 213.041733,513.869751 
	C213.623856,517.977539 216.920609,518.619629 219.972778,518.673523 
	C223.389877,518.733948 225.927109,514.813049 224.812149,511.051849 
	C224.293243,509.301361 222.211853,508.014038 220.137970,506.181763 
M248.724472,432.022491 
	C249.058517,431.820831 249.392563,431.619202 249.726624,431.417542 
	C249.595367,431.321838 249.465012,431.144287 249.332733,431.142853 
	C247.617004,431.124146 245.901001,431.130463 244.185059,431.130463 
	C244.186523,431.434570 244.187988,431.738678 244.189453,432.042786 
	C245.470749,432.042786 246.752045,432.042786 248.724472,432.022491 
M368.194427,559.891479 
	C368.407318,559.846802 368.620178,559.802063 368.833099,559.757385 
	C368.756683,559.486389 368.680267,559.215454 368.603851,558.944458 
	C368.440979,559.129456 368.278137,559.314392 368.194427,559.891479 
M388.805969,542.107971 
	C388.592896,542.152649 388.379822,542.197327 388.166748,542.242004 
	C388.243225,542.513062 388.319702,542.784058 388.396149,543.055115 
	C388.559204,542.870178 388.722229,542.685181 388.805969,542.107971 
M368.712006,536.856750 
	C368.596680,536.962891 368.481384,537.069031 368.366058,537.175110 
	C368.481750,537.157471 368.597412,537.139893 368.712006,536.856750 
M257.142609,592.711975 
	C257.054504,592.712280 256.966400,592.712585 257.142609,592.711975 
M335.287476,541.143921 
	C335.403168,541.037476 335.518860,540.931030 335.634552,540.824524 
	C335.518494,540.842224 335.402466,540.859924 335.287476,541.143921 
z"/>
<path fill="#6CB8A6" opacity="1.000000" stroke="none" 
	d="
M194.886475,586.959717 
	C196.558365,571.255066 202.476120,557.444092 212.159134,544.880371 
	C219.968796,534.747253 229.014572,526.144775 239.632065,519.261780 
	C254.073776,509.899628 270.121307,504.615509 287.080688,501.975037 
	C288.980682,501.679260 290.832001,501.071106 292.681030,500.613922 
	C292.681030,495.712341 292.658844,490.935242 292.701691,486.158752 
	C292.709320,485.308716 292.709106,484.062256 293.210205,483.713196 
	C293.838257,483.275604 295.209961,483.205200 295.865051,483.612518 
	C304.480896,488.969879 312.972443,494.527954 321.611450,499.846893 
	C326.605530,502.921722 331.809082,505.656403 338.169983,509.251587 
	C322.783478,519.811890 308.160126,529.848450 292.105347,540.867432 
	C292.504639,533.477722 292.824066,527.566223 293.210419,520.415466 
	C258.538605,523.138245 231.659073,538.053284 211.078430,565.948730 
	C209.961929,567.127075 209.508499,568.101746 209.055084,569.076477 
	C209.055084,569.076477 209.010925,569.004578 208.691849,569.077148 
	C207.270081,571.795776 206.167389,574.441833 205.064697,577.087830 
	C205.064682,577.087830 205.016800,577.007812 204.700287,577.087524 
	C203.254272,579.472168 201.803223,581.678528 201.060425,584.101990 
	C199.386627,589.562683 198.063507,595.130920 196.597672,600.655334 
	C195.996323,598.220459 196.140625,595.894470 195.955063,593.595154 
	C195.775421,591.369080 195.256424,589.170410 194.886475,586.959717 
z"/>
<path fill="#EBEBD6" opacity="1.000000" stroke="none" 
	d="
M615.995422,540.702454 
	C616.231201,543.893616 615.137817,545.078430 612.263123,545.028687 
	C598.526123,544.791199 601.246277,546.685730 601.022888,534.192871 
	C600.903748,527.531616 601.001099,520.866516 600.997742,514.203186 
	C600.994385,507.526520 596.601562,502.108704 591.109009,502.001770 
	C585.871887,501.899780 580.340759,507.125793 580.083557,513.198914 
	C579.745911,521.172974 580.186523,529.179138 579.881226,537.155823 
	C579.783142,539.717896 578.905762,543.989990 577.473816,544.415833 
	C573.996216,545.449829 569.962036,544.874451 566.210449,544.441650 
	C565.646729,544.376587 565.062988,541.591125 565.054016,540.060791 
	C564.967651,525.401917 564.994629,510.742340 565.010071,496.082977 
	C565.013550,492.805267 564.331787,489.173309 569.482910,488.956604 
	C576.015320,488.681793 578.440918,490.232117 579.269104,495.657898 
	C592.184631,485.775513 599.300476,486.039581 613.191223,497.113647 
	C618.513306,491.926483 624.490906,489.074036 632.499268,488.670776 
	C642.200012,488.182281 651.908386,498.463867 651.979370,508.263489 
	C652.057861,519.090881 651.911072,529.920349 652.043579,540.746643 
	C652.083252,543.983093 650.988281,545.044067 647.704407,545.067566 
	C637.008911,545.143799 637.007812,545.269775 637.008423,534.596863 
	C637.008789,527.267517 636.662537,519.915771 637.127075,512.615723 
	C637.528259,506.311035 634.835693,503.768799 628.178345,502.067749 
	C624.922302,501.235748 619.423523,504.722504 617.786072,508.803131 
	C616.846313,511.145020 616.143860,513.742432 616.076965,516.244690 
	C615.863281,524.234924 615.996704,532.234497 615.995422,540.702454 
z"/>
<path fill="#6CBBA8" opacity="1.000000" stroke="none" 
	d="
M756.018921,533.990112 
	C760.072632,525.072144 764.190491,516.602173 767.972229,507.984619 
	C772.499329,497.668610 776.696289,487.207977 781.160278,476.863525 
	C781.694641,475.625000 782.806702,474.338654 783.988647,473.727081 
	C789.769226,470.736115 798.634705,474.548523 800.929016,480.505951 
	C804.013733,488.515472 807.340149,496.436615 810.743347,504.317719 
	C816.381653,517.374878 822.164001,530.369812 828.416016,544.598145 
	C823.934326,544.731689 819.961670,544.703003 816.013977,545.003357 
	C810.573120,545.417297 809.885376,541.797241 808.776367,537.706055 
	C806.688660,530.004395 804.878418,528.956970 796.791809,528.964478 
	C790.632019,528.970154 784.472046,529.003418 778.312439,528.978333 
	C775.230469,528.965820 773.238159,529.599121 772.651794,533.399963 
	C772.123047,536.827820 770.356201,540.116577 768.794067,543.299194 
	C768.365234,544.172974 766.731934,544.864258 765.616333,544.918518 
	C761.646423,545.111694 757.661438,544.994080 752.078369,544.994080 
	C753.535156,540.981262 754.734680,537.677063 756.018921,533.990112 
M786.576904,501.011658 
	C784.453918,506.057068 782.330994,511.102448 780.013733,516.609558 
	C787.543091,516.609558 793.678467,516.609558 800.200195,516.609558 
	C796.749573,508.429321 793.509521,500.748291 789.783691,491.915436 
	C788.510254,495.765350 787.753235,498.054047 786.576904,501.011658 
z"/>
<path fill="#EBEBD6" opacity="1.000000" stroke="none" 
	d="
M665.001709,541.999756 
	C664.999512,526.521423 664.973633,511.542969 665.013428,496.564697 
	C665.022278,493.234283 664.015137,489.257996 669.486938,488.983337 
	C676.939148,488.609222 678.324463,489.470123 679.443848,496.339600 
	C685.342224,488.339630 693.573669,488.481598 701.839844,489.036072 
	C709.013306,489.517303 718.735718,498.882294 721.060364,506.388916 
	C723.461365,514.141968 722.833740,521.717102 720.885864,529.279968 
	C718.230774,539.588867 702.481079,548.571899 692.151367,545.522644 
	C687.788940,544.234863 683.738098,541.891663 679.446960,539.984314 
	C679.446960,543.035217 679.401184,546.983582 679.473083,550.929749 
	C679.496460,552.216125 679.970276,553.494324 679.992676,554.780579 
	C680.113831,561.734741 679.839172,561.990906 673.004517,561.994446 
	C670.529907,561.995667 668.055298,561.994629 665.001648,561.994629 
	C665.001648,555.350708 665.001648,548.925171 665.001709,541.999756 
M704.977600,527.270813 
	C705.889343,525.073486 707.121765,522.950439 707.651245,520.664551 
	C709.098511,514.416382 706.973511,509.123230 702.341858,504.940369 
	C698.418396,501.397003 691.417786,500.921204 686.833679,503.553589 
	C680.855713,506.986389 678.165710,515.148132 680.743286,523.232727 
	C682.886597,529.955566 687.152649,533.612000 693.945435,532.786316 
	C697.630920,532.338318 701.041138,529.626709 704.977600,527.270813 
z"/>
<path fill="#EBEBD6" opacity="1.000000" stroke="none" 
	d="
M431.987732,523.908020 
	C424.432831,506.861481 431.065979,487.172668 446.692047,478.370178 
	C460.966553,470.329132 477.146332,470.919647 491.136444,481.834869 
	C493.655396,483.800140 494.771027,486.732086 491.168915,489.387451 
	C488.923065,491.043030 487.096466,494.416229 484.860626,494.622559 
	C482.492035,494.841095 479.963562,491.974030 477.326599,490.887421 
	C469.057861,487.480194 460.571899,487.242676 453.206818,492.517029 
	C446.354095,497.424408 443.510559,505.039795 445.122620,513.338501 
	C447.780548,527.020935 462.239227,536.651672 475.499054,529.809082 
	C477.657959,528.695007 479.693329,527.328857 481.731232,525.995728 
	C485.075439,523.808044 489.620148,525.167114 492.402618,530.101624 
	C493.570038,532.171875 493.753662,534.667847 490.793671,537.252991 
	C481.302704,545.542236 470.730469,546.947083 458.808014,545.139343 
	C447.962891,543.494934 439.847748,538.454468 434.460083,528.962830 
	C433.596802,527.441956 432.838959,525.861267 431.987732,523.908020 
z"/>
<path fill="#EBEBD6" opacity="1.000000" stroke="none" 
	d="
M506.290314,538.777954 
	C491.622742,524.950134 495.900848,504.294800 508.505829,494.183838 
	C520.183594,484.816620 543.263062,486.449982 551.677185,501.590393 
	C555.615845,508.677612 556.844971,516.627380 554.683899,524.909912 
	C552.361084,533.811951 547.200012,540.476685 538.897705,543.813843 
	C534.263916,545.676392 528.746155,545.869263 523.627930,545.862671 
	C517.218689,545.854370 511.322937,543.613892 506.290314,538.777954 
M515.961731,506.411591 
	C511.073181,509.972809 513.577454,515.188049 513.002625,519.707825 
	C512.187012,526.120789 516.138123,530.173035 521.103333,532.213989 
	C525.202759,533.899109 529.919006,534.150330 534.316101,530.444092 
	C539.583374,526.004272 541.812134,520.640076 540.815063,514.373413 
	C539.869446,508.430695 535.582886,504.557556 530.067688,501.939758 
	C524.174377,499.142517 520.359680,503.074707 515.961731,506.411591 
z"/>
<path fill="#6CBBA8" opacity="1.000000" stroke="none" 
	d="
M849.026978,520.999878 
	C849.015869,527.831726 848.911499,534.165344 849.033936,540.494568 
	C849.092896,543.538574 848.324341,545.095764 844.852661,545.022583 
	C830.784302,544.726013 833.091309,546.753784 833.020508,533.645447 
	C832.922485,515.483704 833.095398,497.320282 832.943420,479.159332 
	C832.911438,475.335785 833.869629,473.578217 837.992676,473.952118 
	C841.442383,474.264954 844.942932,474.016327 849.026978,474.016327 
	C849.026978,489.642120 849.026978,505.070984 849.026978,520.999878 
z"/>
<path fill="#EBEBD6" opacity="1.000000" stroke="none" 
	d="
M733.002563,494.000000 
	C733.002563,485.859772 733.002563,478.219574 733.002563,470.496246 
	C733.560242,470.310333 733.992554,470.047546 734.430603,470.037506 
	C745.997742,469.772064 745.997742,469.776550 745.997986,481.484528 
	C745.998291,496.633575 745.999084,511.782593 745.999084,526.931641 
	C745.999084,531.593201 745.883179,536.258484 746.037109,540.914917 
	C746.135437,543.890015 745.093872,545.291504 742.009216,545.015991 
	C740.522827,544.883179 738.999084,544.853516 737.519653,545.020264 
	C733.992126,545.417908 732.907715,543.910461 732.940125,540.445984 
	C733.083557,525.131775 733.002380,509.815521 733.002563,494.000000 
z"/>
<path fill="#1E262D" opacity="1.000000" stroke="none" 
	d="
M375.135803,563.020020 
	C376.402222,567.350220 376.970093,572.315918 383.730164,572.041443 
	C381.727875,574.201782 377.596252,573.685852 375.566345,570.853516 
	C374.719177,569.671448 374.209747,568.247314 373.269135,566.382996 
	C371.749512,570.965759 370.407043,575.124329 368.989502,579.257141 
	C367.660065,583.133057 366.347504,587.020874 364.806122,590.813477 
	C364.444824,591.702454 363.293427,592.592163 362.331482,592.862671 
	C356.312592,594.555176 350.244385,596.072266 344.604706,597.540161 
	C345.845245,599.483887 347.373138,601.877808 348.852783,604.632935 
	C347.988037,604.247437 347.055359,603.593445 346.374176,602.739014 
	C342.224365,597.533203 336.631042,598.233643 334.025543,604.219299 
	C333.412048,605.628662 332.414734,607.587646 331.218475,607.913025 
	C321.827881,610.466675 312.345856,612.684387 302.445618,615.002441 
	C301.999176,614.999146 301.987671,614.987793 301.987671,614.987793 
	C300.912415,614.437805 299.837189,613.887756 298.161560,613.030701 
	C300.099060,611.556335 301.719696,610.323120 303.646179,609.386719 
	C303.587189,610.676697 303.222321,611.669983 302.284210,614.223694 
	C310.858337,611.829285 318.214813,609.687317 325.621796,607.737122 
	C330.569519,606.434387 333.756226,603.756165 333.904358,598.515625 
	C330.997894,597.981934 328.004364,597.432312 325.010834,596.882690 
	C331.056519,596.252563 337.106323,595.657959 343.143524,594.955200 
	C344.084198,594.845703 344.967346,594.242432 345.877106,593.867432 
	C345.775208,593.390015 345.673309,592.912659 345.571411,592.435303 
	C344.153748,592.595886 342.737732,592.876587 341.318146,592.895935 
	C335.660034,592.972900 329.999908,593.027588 324.342896,592.939636 
	C323.327362,592.923828 321.572174,592.328491 321.472504,591.767273 
	C321.275940,590.660400 321.647888,589.069580 322.402252,588.241333 
	C326.209076,584.061707 330.118347,579.960815 334.233612,576.089478 
	C335.032471,575.338013 336.962708,575.410706 338.274780,575.644226 
	C347.153748,577.224670 352.655548,571.882874 351.416595,562.760681 
	C351.004242,559.724548 351.850342,557.508179 355.479248,557.332947 
	C354.922180,559.653442 353.190613,561.848816 353.536072,563.644592 
	C355.218781,572.391663 347.367828,579.270081 339.270203,577.878723 
	C338.156281,577.687256 336.488831,576.945435 336.011536,577.412598 
	C331.891357,581.445068 327.985443,585.696472 324.015686,589.882629 
	C324.325256,590.551880 324.634857,591.221191 324.944458,591.890442 
	C334.179321,590.665894 343.423340,589.505615 352.645416,588.191284 
	C357.731354,587.466492 360.994751,584.924438 361.499512,579.302490 
	C361.695770,577.117065 363.102722,575.040222 363.958191,572.913940 
	C365.280396,580.844788 363.184296,587.193420 354.970093,590.789490 
	C360.133179,592.519165 362.605530,591.603333 363.965851,587.480225 
	C366.097076,581.020386 367.952820,574.470093 370.026917,567.990723 
	C370.560669,566.323303 371.474548,564.777588 372.729065,563.266052 
	C373.874847,563.244141 374.505310,563.132080 375.135803,563.020020 
z"/>
<path fill="#1E262D" opacity="1.000000" stroke="none" 
	d="
M276.656097,586.088196 
	C276.838928,586.944336 276.867310,588.432800 276.415314,588.596680 
	C273.772736,589.555176 271.046875,590.640015 268.291748,590.824280 
	C265.908875,590.983704 263.464386,589.891174 261.018707,589.565063 
	C259.544617,589.368591 258.016235,589.579285 256.242279,589.810852 
	C252.482101,586.692505 249.100433,583.243164 245.440811,580.119446 
	C244.217316,579.075195 242.126068,578.104248 240.701569,578.400146 
	C234.081284,579.775146 229.453812,577.295715 226.008728,571.009521 
	C225.944672,566.708862 225.909332,563.224060 225.873993,559.739258 
	C225.873993,559.739258 225.898590,559.373230 226.299973,559.143250 
	C230.320221,557.175415 231.252274,558.999146 231.113770,562.241943 
	C231.097122,562.631836 231.080460,563.021790 230.707825,563.771240 
	C230.574692,566.086853 230.797546,568.042908 231.020401,569.998962 
	C234.431519,572.970947 237.573639,574.569458 241.836884,570.735962 
	C245.769547,567.199829 245.261871,564.035522 242.752701,560.332642 
	C242.288422,559.647583 241.419403,559.096191 241.267441,558.371826 
	C241.018112,557.183411 241.203079,555.903809 241.204895,554.662659 
	C242.563950,554.713318 244.205902,554.287231 245.233231,554.896973 
	C249.751511,557.578369 252.123611,564.081299 250.271439,569.299805 
	C249.161240,572.427734 249.654144,574.433228 252.085220,576.678040 
	C255.238205,579.589417 258.085632,582.876709 260.769165,586.237915 
	C263.133423,589.199219 266.076599,589.492554 269.277924,588.682800 
	C271.675507,588.076477 273.950287,586.984436 276.656097,586.088196 
z"/>
<path fill="#1E262D" opacity="1.000000" stroke="none" 
	d="
M238.625580,590.982422 
	C239.635071,591.528259 240.246857,592.011047 241.649811,593.118103 
	C237.731308,592.794250 234.683990,592.542358 231.636673,592.290527 
	C231.530670,592.651367 231.424667,593.012207 231.318649,593.373108 
	C232.820831,594.328857 234.323013,595.284607 235.910645,596.571777 
	C230.624435,596.095459 225.140060,595.723083 219.910080,594.368408 
	C213.565140,592.725098 211.442337,589.409790 212.113815,583.118042 
	C212.296021,581.410461 213.918106,579.856628 214.879349,578.232239 
	C215.977097,579.442078 217.639603,580.479492 218.070969,581.892700 
	C219.613205,586.945374 222.831131,588.952881 228.007904,589.093872 
	C231.428589,589.187134 234.822144,590.276123 238.625580,590.982422 
z"/>
<path fill="#1E262D" opacity="1.000000" stroke="none" 
	d="
M316.651733,588.173096 
	C316.943695,591.335083 315.658447,592.670959 312.291931,591.176147 
	C310.647430,590.445862 308.851074,590.050598 307.113007,589.539185 
	C298.578888,587.027771 298.481720,587.040466 297.693542,578.197693 
	C297.575378,576.871704 298.571533,575.198486 299.512604,574.069824 
	C303.176758,569.675110 307.026337,565.435059 310.806915,561.137451 
	C310.554230,560.817688 310.301575,560.497925 310.048920,560.178162 
	C308.919983,561.065796 307.706116,561.865601 306.678497,562.858093 
	C303.936707,565.506165 301.210632,568.176575 298.598419,570.951233 
	C295.607758,574.127869 288.931244,575.478088 284.077454,573.364502 
	C286.909180,572.936401 289.858276,573.092834 292.725220,572.679321 
	C294.151611,572.473633 295.669128,571.463623 296.726837,570.400940 
	C300.238800,566.872375 303.389618,562.966370 307.063263,559.627930 
	C308.120453,558.667236 310.474304,559.133240 312.233612,558.945129 
	C311.969238,560.874146 312.324432,563.256104 311.313263,564.639160 
	C309.113556,567.648193 306.598114,570.740112 303.518829,572.721008 
	C298.530731,575.929871 300.626404,580.029602 301.085724,584.033508 
	C301.151642,584.607971 301.611298,585.526123 302.027496,585.611938 
	C306.765381,586.588562 311.530304,587.434204 316.651733,588.173096 
z"/>
<path fill="#60AB98" opacity="1.000000" stroke="none" 
	d="
M194.533722,587.208374 
	C195.256424,589.170410 195.775421,591.369080 195.955063,593.595154 
	C196.140625,595.894470 195.996323,598.220459 196.597672,600.655334 
	C198.063507,595.130920 199.386627,589.562683 201.060425,584.101990 
	C201.803223,581.678528 203.254272,579.472168 204.739075,577.113403 
	C204.739456,578.785461 204.430634,580.522461 204.021545,582.235474 
	C202.352798,589.223511 200.653412,596.204285 198.532501,603.615845 
	C196.732407,605.494568 196.442413,612.733459 197.759781,613.882385 
	C197.819855,613.934753 198.462372,613.319214 198.833618,613.014771 
	C199.647507,618.486084 200.461380,623.957397 201.275269,629.428711 
	C200.814865,629.639282 200.354462,629.849854 199.894058,630.060425 
	C198.962402,628.619019 197.554108,627.292603 197.174515,625.718140 
	C194.141357,613.137756 193.232239,600.363342 194.533722,587.208374 
z"/>
<path fill="#1E262D" opacity="1.000000" stroke="none" 
	d="
M234.615997,599.152100 
	C235.561996,599.037109 236.200684,599.092834 236.924088,599.155945 
	C235.580566,601.064087 233.543259,602.731812 233.296844,604.631653 
	C233.017014,606.789490 233.674026,610.368896 235.114029,611.157837 
	C237.528107,612.480408 240.878418,612.209839 243.847351,612.358582 
	C245.513168,612.442017 247.299271,611.570129 248.868683,611.900513 
	C259.809998,614.204163 270.710419,616.702759 281.615082,619.177856 
	C282.036072,619.273315 282.367004,619.765503 282.861267,620.418518 
	C276.950714,619.992981 270.844269,619.580750 264.908051,618.348450 
	C259.110443,617.144836 253.503647,615.040894 247.769745,613.492737 
	C246.812500,613.234253 245.517654,613.554810 244.577881,614.014648 
	C239.398117,616.549438 235.723450,616.022461 232.776855,612.157043 
	C229.764359,608.205261 230.354874,603.257996 234.615997,599.152100 
z"/>
<path fill="#1E262D" opacity="1.000000" stroke="none" 
	d="
M280.966339,569.653320 
	C279.418091,568.912537 277.625610,568.036133 276.274414,566.710144 
	C268.737885,559.314148 261.353119,551.763306 253.798340,544.386353 
	C252.516953,543.135132 250.703400,539.781738 249.019730,544.623413 
	C246.790985,543.700073 246.168137,541.897522 248.340057,540.323242 
	C249.307800,539.621826 251.797577,539.481445 252.498718,540.183167 
	C262.086823,549.779907 271.482697,559.568665 280.966339,569.653320 
z"/>
<path fill="#1E262D" opacity="1.000000" stroke="none" 
	d="
M294.465576,620.839966 
	C296.989990,619.924133 299.945068,618.982239 302.946136,618.221924 
	C312.663391,615.760010 322.376678,613.273071 332.149445,611.050659 
	C333.488739,610.746155 335.156311,611.885376 336.837219,612.643311 
	C329.477417,614.618713 321.987152,616.488770 314.416504,617.939514 
	C307.964783,619.175842 301.420593,619.929810 294.465576,620.839966 
z"/>
<path fill="#1E262D" opacity="1.000000" stroke="none" 
	d="
M333.101532,550.372192 
	C336.174622,552.138550 337.342102,555.612854 335.023041,558.002319 
	C331.401276,561.734192 332.108490,565.854858 332.006592,570.542725 
	C332.000732,571.000000 331.983795,571.021729 331.983795,571.021729 
	C331.983795,571.021729 331.495117,571.010681 331.250854,571.005249 
	C326.830688,564.796448 329.891632,560.170654 334.288757,556.095398 
	C333.840271,554.150940 333.446777,552.444946 333.101532,550.372192 
z"/>
<path fill="#1E262D" opacity="1.000000" stroke="none" 
	d="
M337.118225,613.321655 
	C342.280579,613.946838 345.876740,611.835632 348.455933,607.095581 
	C349.685638,611.726257 346.405884,613.682190 342.938446,614.803162 
	C341.306854,615.330627 339.107819,614.102661 337.118225,613.321655 
z"/>
<path fill="#1E262D" opacity="1.000000" stroke="none" 
	d="
M330.649170,573.138672 
	C331.287750,573.466980 331.991974,574.323242 331.933563,574.378845 
	C328.553345,577.598511 325.109955,580.751892 321.328186,583.951355 
	C324.108765,580.424988 327.233887,576.859009 330.649170,573.138672 
z"/>
<path fill="#1E262D" opacity="1.000000" stroke="none" 
	d="
M285.131927,621.304443 
	C287.416046,621.004944 289.833282,621.007446 292.606140,620.998413 
	C290.123016,625.518005 289.584473,625.561340 285.131927,621.304443 
z"/>
<path fill="#6CB8A6" opacity="1.000000" stroke="none" 
	d="
M198.895477,612.631592 
	C198.462372,613.319214 197.819855,613.934753 197.759781,613.882385 
	C196.442413,612.733459 196.732407,605.494568 198.453552,604.030884 
	C198.857376,606.761292 198.907349,609.504822 198.895477,612.631592 
z"/>
<path fill="#60AB98" opacity="1.000000" stroke="none" 
	d="
M205.388397,576.944702 
	C206.167389,574.441833 207.270081,571.795776 208.727112,569.100342 
	C207.958344,571.634521 206.835236,574.218018 205.388397,576.944702 
z"/>
<path fill="#1E262D" opacity="1.000000" stroke="none" 
	d="
M278.899475,579.356079 
	C282.133026,581.445618 279.711182,583.501892 278.297546,585.824951 
	C278.235657,583.902344 278.480682,581.805847 278.899475,579.356079 
z"/>
<path fill="#20282F" opacity="1.000000" stroke="none" 
	d="
M231.359741,562.003052 
	C231.252274,558.999146 230.320221,557.175415 226.327484,558.961853 
	C227.708954,558.419067 229.464279,557.827698 231.219604,557.236267 
	C231.348312,558.745605 231.477005,560.254883 231.359741,562.003052 
z"/>
<path fill="#20282F" opacity="1.000000" stroke="none" 
	d="
M225.599976,560.068726 
	C225.909332,563.224060 225.944672,566.708862 225.960327,570.668884 
	C225.735733,567.562134 225.530838,563.980225 225.599976,560.068726 
z"/>
<path fill="#1E262D" opacity="1.000000" stroke="none" 
	d="
M261.017792,557.356201 
	C262.286621,558.119263 263.598938,559.223877 264.951843,560.671143 
	C263.682037,559.908386 262.371674,558.803040 261.017792,557.356201 
z"/>
<path fill="#1E262D" opacity="1.000000" stroke="none" 
	d="
M265.029388,561.348633 
	C266.295990,562.101257 267.605621,563.194824 268.965668,564.624268 
	C267.701508,563.869934 266.386963,562.779785 265.029388,561.348633 
z"/>
<path fill="#1E262D" opacity="1.000000" stroke="none" 
	d="
M253.007050,549.359131 
	C254.287445,550.120667 255.599106,551.227844 256.949158,552.678711 
	C255.671158,551.916626 254.354736,550.810730 253.007050,549.359131 
z"/>
<path fill="#1E262D" opacity="1.000000" stroke="none" 
	d="
M257.014221,553.356384 
	C258.288452,554.120850 259.599396,555.229187 260.947937,556.681519 
	C259.674011,555.917114 258.362427,554.808655 257.014221,553.356384 
z"/>
<path fill="#1E262D" opacity="1.000000" stroke="none" 
	d="
M269.070801,565.327271 
	C270.331573,566.071899 271.623322,567.160034 272.972900,568.575562 
	C271.721069,567.825562 270.411407,566.748108 269.070801,565.327271 
z"/>
<path fill="#1E262D" opacity="1.000000" stroke="none" 
	d="
M249.036087,545.340088 
	C250.318481,546.107178 251.614822,547.222717 252.948853,548.681152 
	C251.674377,547.912292 250.362198,546.800415 249.036087,545.340088 
z"/>
<path fill="#1E262D" opacity="1.000000" stroke="none" 
	d="
M273.109314,569.314087 
	C274.370667,570.065735 275.643616,571.162598 276.972260,572.587341 
	C275.725616,571.829895 274.423248,570.744690 273.109314,569.314087 
z"/>
<path fill="#20282F" opacity="1.000000" stroke="none" 
	d="
M231.029663,569.570435 
	C230.797546,568.042908 230.574692,566.086853 230.688660,564.063354 
	C231.029953,565.711182 231.034439,567.426575 231.029663,569.570435 
z"/>
<path fill="#1E262D" opacity="1.000000" stroke="none" 
	d="
M277.090240,573.294434 
	C277.905914,573.956421 278.729095,574.940735 279.282349,575.961243 
	C278.374176,575.203857 277.735962,574.410278 277.090240,573.294434 
z"/>
<path fill="#1E262D" opacity="1.000000" stroke="none" 
	d="
M319.650024,585.022461 
	C319.248352,585.984863 318.504547,586.983154 317.398285,587.998840 
	C317.793213,587.030273 318.550568,586.044250 319.650024,585.022461 
z"/>
<path fill="#1E262D" opacity="1.000000" stroke="none" 
	d="
M283.951233,572.664551 
	C283.019196,572.226440 282.053101,571.446350 281.045227,570.329590 
	C281.974670,570.769592 282.945923,571.546082 283.951233,572.664551 
z"/>
<path fill="#60AB98" opacity="1.000000" stroke="none" 
	d="
M209.359528,568.953857 
	C209.508499,568.101746 209.961929,567.127075 210.766113,566.100830 
	C210.632568,566.976624 210.148285,567.903931 209.359528,568.953857 
z"/>
<path fill="#1E262D" opacity="1.000000" stroke="none" 
	d="
M320.775452,584.096741 
	C320.873779,584.297852 320.680176,584.555176 320.201843,584.877686 
	C320.091644,584.671814 320.280426,584.408569 320.775452,584.096741 
z"/>
<path fill="#000000" opacity="1.000000" stroke="none" 
	d="
M373.997314,530.134644 
	C373.496094,530.364746 372.994873,530.594788 372.234619,530.552063 
	C371.951904,529.508606 371.928192,528.738037 371.904480,527.967407 
	C370.757355,523.365173 369.617432,519.375916 371.552460,514.028687 
	C374.583130,505.653717 366.445038,498.272461 357.657196,500.355957 
	C354.717896,501.052856 352.889435,500.839081 350.720856,498.512115 
	C346.388336,493.863251 341.520752,489.716858 337.050720,485.188629 
	C336.282135,484.409973 336.029724,482.733704 336.148499,481.532349 
	C336.760956,475.337891 339.980316,471.460754 346.026733,469.954285 
	C347.394958,469.613434 349.574036,470.056244 350.552948,470.997955 
	C363.243286,483.206116 375.756317,495.598297 388.381897,507.874359 
	C391.579468,510.983429 390.469147,513.657654 387.952850,516.321716 
	C383.760925,520.759827 379.525604,525.156921 374.913269,529.846313 
	C374.344452,530.125793 374.170898,530.130188 373.997314,530.134644 
z"/>
<path fill="#000000" opacity="1.000000" stroke="none" 
	d="
M322.740173,443.259674 
	C324.400757,444.920685 325.752228,446.397339 327.235260,447.727264 
	C329.685333,449.924377 331.367401,451.758331 329.506592,455.705505 
	C328.481354,457.880249 329.302155,461.905151 330.783356,464.078827 
	C333.920135,468.682190 333.203918,472.364532 329.714020,476.524933 
	C328.876953,475.913177 327.915833,475.381897 327.166992,474.637177 
	C318.679810,466.196320 310.454559,457.473602 301.655365,449.373627 
	C297.825928,445.848541 301.740326,442.967133 301.313385,439.808929 
	C301.216949,439.095428 303.945404,437.995026 305.382996,437.087769 
	C305.509857,437.007721 305.726746,437.080780 305.869598,437.013885 
	C313.405884,433.485138 318.180023,437.602783 322.740173,443.259674 
z"/>
<path fill="#000000" opacity="1.000000" stroke="none" 
	d="
M365.395325,475.607574 
	C362.242371,472.492981 359.322083,469.638123 356.347321,466.841156 
	C354.099915,464.727966 352.679352,462.887238 353.632446,459.136353 
	C355.313995,452.518738 349.216827,445.303589 342.309448,446.245514 
	C336.787811,446.998474 333.632385,444.992554 330.505463,441.298340 
	C328.313934,438.709229 325.891113,436.315887 323.193848,433.431091 
	C335.614563,431.778961 346.954193,433.438416 358.024445,437.115021 
	C359.217987,437.511383 360.391632,439.380463 360.712921,440.766144 
	C363.204376,451.511658 365.508698,462.301025 367.809906,473.089844 
	C368.316071,475.462891 368.035217,475.699463 365.395325,475.607574 
z"/>
<path fill="#000000" opacity="1.000000" stroke="none" 
	d="
M363.976807,572.528687 
	C363.102722,575.040222 361.695770,577.117065 361.499512,579.302490 
	C360.994751,584.924438 357.731354,587.466492 352.645416,588.191284 
	C343.423340,589.505615 334.179321,590.665894 324.944458,591.890442 
	C324.634857,591.221191 324.325256,590.551880 324.015686,589.882629 
	C327.985443,585.696472 331.891357,581.445068 336.011536,577.412598 
	C336.488831,576.945435 338.156281,577.687256 339.270203,577.878723 
	C347.367828,579.270081 355.218781,572.391663 353.536072,563.644592 
	C353.190613,561.848816 354.922180,559.653442 355.857330,557.327759 
	C356.018250,557.013245 355.999542,557.002869 356.223694,556.900024 
	C356.723602,556.595154 356.912201,556.330933 357.013641,556.004517 
	C357.013641,556.004517 356.997711,556.002441 357.347321,555.970581 
	C360.804230,552.982788 363.911530,550.026855 367.018829,547.070984 
	C367.628387,548.783936 368.237915,550.496887 368.833923,552.821655 
	C368.820374,553.433472 368.722443,553.888672 368.722443,553.888672 
	C367.809113,557.310974 366.895782,560.733337 365.764618,564.695557 
	C365.286987,565.444580 365.127228,565.713257 365.067505,566.041443 
	C364.710175,568.075439 364.352814,570.109497 363.976807,572.528687 
z"/>
<path fill="#000000" opacity="1.000000" stroke="none" 
	d="
M225.766388,435.570557 
	C235.386139,434.304230 244.618652,433.189026 253.851181,432.073822 
	C254.059494,432.686066 254.267807,433.298309 254.476120,433.910583 
	C250.752472,437.961823 247.114670,442.099396 243.218124,445.976868 
	C242.590378,446.601532 240.795776,446.188782 239.563889,446.049347 
	C230.954987,445.075043 224.104446,452.119873 224.984100,460.782867 
	C225.146637,462.383606 224.460144,464.554352 223.368713,465.708466 
	C219.995056,469.275726 216.236450,472.478882 211.599380,476.776031 
	C212.289948,469.879669 212.585373,463.913330 213.566833,458.062042 
	C214.383438,453.193542 216.061264,448.473938 217.255325,443.662964 
	C218.337738,439.301727 220.282928,435.927521 225.766388,435.570557 
z"/>
<path fill="#000000" opacity="1.000000" stroke="none" 
	d="
M338.930573,551.034851 
	C338.933960,550.590576 338.937378,550.146301 338.902588,549.048889 
	C338.283020,547.851379 337.701569,547.307007 337.120178,546.762634 
	C337.130676,546.376404 337.141174,545.990173 337.138092,545.069092 
	C337.124512,544.534241 337.147827,544.043823 337.147827,544.043823 
	C336.594055,540.551819 337.774170,538.113953 340.586548,535.683472 
	C345.064392,531.813599 348.832245,527.132080 353.089142,522.987671 
	C353.886475,522.211426 355.581421,522.063354 356.839752,522.120239 
	C358.950439,522.215759 361.043182,522.708984 363.575409,523.441711 
	C364.702545,526.911438 365.397736,529.974304 366.092926,533.037170 
	C366.421661,535.718140 367.239960,538.521667 363.799927,540.826172 
	C358.892090,545.837097 354.440002,550.394653 349.987885,554.952271 
	C349.242035,554.962585 348.496185,554.972961 347.134918,554.713989 
	C343.989868,553.307983 341.460205,552.171448 338.930573,551.034851 
z"/>
<path fill="#000000" opacity="1.000000" stroke="none" 
	d="
M215.112396,483.374756 
	C219.604202,479.188232 223.865265,475.306305 228.051971,471.345825 
	C231.303528,468.270020 238.300903,469.484009 239.724319,473.769287 
	C243.044479,483.764954 243.247299,484.568451 236.514832,490.975555 
	C233.744568,493.611969 231.259476,496.578522 228.307205,498.980072 
	C226.870544,500.148743 224.612213,500.990936 222.807999,500.858795 
	C220.302719,500.675323 216.401993,500.100739 215.691574,498.524750 
	C213.614594,493.917206 210.659012,488.811584 215.112396,483.374756 
z"/>
<path fill="#000000" opacity="1.000000" stroke="none" 
	d="
M300.908997,603.963379 
	C300.609589,604.062256 300.363617,604.236450 299.715179,604.747070 
	C296.091400,608.242188 292.923523,611.476440 288.316162,616.180359 
	C282.392059,609.572327 276.744415,603.272644 271.096771,596.972961 
	C271.324585,596.140991 271.552368,595.309082 272.310791,594.228638 
	C277.803558,592.491821 282.716339,591.905579 287.640656,594.273865 
	C288.565796,594.718933 290.124847,594.924377 290.893646,594.443848 
	C296.562134,590.901367 302.272980,592.678589 308.007629,593.997559 
	C308.017883,594.165833 308.028137,594.334045 307.898254,595.041504 
	C306.842316,597.055420 305.926483,598.530090 305.010681,600.004822 
	C305.010681,600.004822 305.000122,600.000000 304.778320,600.106445 
	C304.279144,600.410278 304.092682,600.672485 303.997162,600.999329 
	C303.997162,600.999329 304.000000,601.000000 303.655975,601.028687 
	C302.510956,602.026123 301.709961,602.994751 300.908997,603.963379 
z"/>
<path fill="#000000" opacity="1.000000" stroke="none" 
	d="
M285.439575,413.525970 
	C286.864044,412.390472 288.052460,411.503174 289.537476,410.394470 
	C295.660858,416.253754 301.800812,422.128906 308.645142,428.678070 
	C303.010284,430.382965 299.207092,434.646179 293.641327,430.559753 
	C292.035889,429.381042 288.232697,429.382294 286.517456,430.500183 
	C280.954132,434.126160 276.530975,431.364105 270.956848,428.721069 
	C275.876404,423.559692 280.539978,418.666931 285.439575,413.525970 
z"/>
<path fill="#000000" opacity="1.000000" stroke="none" 
	d="
M200.993317,487.909912 
	C197.329544,492.092590 193.823044,495.932922 190.316544,499.773224 
	C189.788223,499.437561 189.259903,499.101898 188.731583,498.766235 
	C189.194153,495.586578 189.506454,492.375793 190.156845,489.235046 
	C190.993637,485.194092 191.974670,481.172638 193.121964,477.208862 
	C194.909515,471.032959 198.040222,465.952911 205.028595,464.387115 
	C205.028595,469.868073 205.388840,475.549408 204.851318,481.144501 
	C204.636230,483.383392 202.443268,485.432251 200.993317,487.909912 
z"/>
<path fill="#000000" opacity="1.000000" stroke="none" 
	d="
M375.105103,562.755859 
	C374.505310,563.132080 373.874847,563.244141 373.075897,563.177551 
	C373.233948,561.576111 373.560455,560.153320 373.930786,557.990417 
	C373.956329,556.500732 373.938019,555.751160 373.919708,555.001526 
	C374.022858,551.862976 374.126007,548.724426 374.114105,544.924927 
	C373.985199,543.504822 373.971344,542.745605 373.957520,541.986450 
	C375.541290,539.857239 377.125092,537.728027 379.149292,535.147888 
	C382.733154,531.477356 385.876587,528.257690 389.020020,525.038086 
	C389.352753,525.131042 389.622711,525.315674 390.042450,526.018433 
	C390.438751,526.705627 390.683990,526.880127 390.990631,526.968384 
	C391.274628,527.416199 391.558594,527.864014 391.592224,528.688599 
	C390.873108,529.702271 390.404358,530.339050 389.935608,530.975830 
	C389.637939,531.091736 389.409027,531.287903 389.153748,532.121277 
	C389.075073,533.130615 389.091553,533.583008 389.108032,534.035461 
	C387.695953,539.273071 386.472412,544.571655 384.806091,549.727051 
	C383.672729,553.233704 382.575500,557.011230 377.856323,557.713135 
	C376.828857,557.865967 375.999481,559.351013 374.872772,560.688354 
	C374.781952,561.423950 374.897217,561.693787 375.012512,561.963623 
	C375.033173,562.139709 375.053802,562.315735 375.105103,562.755859 
z"/>
<path fill="#000000" opacity="1.000000" stroke="none" 
	d="
M324.672241,596.889893 
	C328.004364,597.432312 330.997894,597.981934 333.904358,598.515625 
	C333.756226,603.756165 330.569519,606.434387 325.621796,607.737122 
	C318.214813,609.687317 310.858337,611.829285 302.284210,614.223694 
	C303.222321,611.669983 303.587189,610.676697 303.987213,609.348877 
	C304.022369,609.014221 304.000824,609.002075 304.226837,608.902466 
	C304.731537,608.601440 304.921021,608.336304 305.021332,608.007507 
	C305.021332,608.007507 304.997223,608.003174 305.305542,607.866455 
	C307.030365,606.371216 308.493530,605.057556 309.854462,603.645325 
	C313.474487,599.888916 316.762024,595.539917 322.985352,596.772400 
	C323.434784,596.813965 323.884216,596.855469 324.672241,596.889893 
z"/>
<path fill="#000000" opacity="1.000000" stroke="none" 
	d="
M250.107101,425.994934 
	C247.503799,425.996399 245.359024,425.996399 243.339844,425.996399 
	C246.540955,414.848175 256.928833,415.856720 264.963928,413.120667 
	C268.780029,411.821228 272.998566,411.703583 277.555359,411.865662 
	C272.588440,416.525635 267.781464,421.379730 262.536377,425.702179 
	C261.303284,426.718414 258.591339,425.957123 256.559326,425.982117 
	C254.561676,426.006714 252.563553,425.991302 250.107101,425.994934 
z"/>
<path fill="#000000" opacity="1.000000" stroke="none" 
	d="
M276.920258,612.006714 
	C276.920258,612.006714 276.968048,612.475037 276.519958,612.728149 
	C268.252899,611.260498 260.417480,609.610352 252.620804,607.794006 
	C247.558319,606.614624 248.048920,600.992554 245.149857,598.049988 
	C245.562119,598.027161 245.974365,598.004333 247.093460,597.978027 
	C248.865982,597.955017 249.931671,597.935486 250.997360,597.915955 
	C252.387756,597.940918 253.778168,597.965881 255.958313,597.938293 
	C259.694702,596.396790 261.917023,597.211548 264.170898,599.580078 
	C268.259064,603.876099 272.653625,607.880554 276.920258,612.006714 
z"/>
<path fill="#000000" opacity="1.000000" stroke="none" 
	d="
M220.488342,506.349274 
	C222.211853,508.014038 224.293243,509.301361 224.812149,511.051849 
	C225.927109,514.813049 223.389877,518.733948 219.972778,518.673523 
	C216.920609,518.619629 213.623856,517.977539 213.041733,513.869751 
	C212.380875,509.206390 214.528030,506.857239 220.488342,506.349274 
z"/>
<path fill="#1E262D" opacity="1.000000" stroke="none" 
	d="
M270.815308,597.013184 
	C276.744415,603.272644 282.392059,609.572327 288.316162,616.180359 
	C292.923523,611.476440 296.091400,608.242188 299.604706,604.947327 
	C296.731476,608.828186 293.558319,612.809509 290.210632,616.638245 
	C289.932678,616.956116 288.187439,616.533447 287.609283,615.962891 
	C281.624634,610.057251 275.737366,604.052734 269.863190,598.036499 
	C269.808533,597.980469 270.298279,597.392883 270.815308,597.013184 
z"/>
<path fill="#1E262D" opacity="1.000000" stroke="none" 
	d="
M244.862000,598.142822 
	C248.048920,600.992554 247.558319,606.614624 252.620804,607.794006 
	C260.417480,609.610352 268.252899,611.260498 276.516815,612.963501 
	C277.554596,613.849487 278.147461,614.753174 279.703308,617.124756 
	C268.600800,614.103821 258.495575,611.942200 248.916565,608.369629 
	C246.237900,607.370544 245.110977,602.210938 243.272232,598.959900 
	C243.706207,598.718506 244.140182,598.477051 244.862000,598.142822 
z"/>
<path fill="#1E262D" opacity="1.000000" stroke="none" 
	d="
M308.269562,593.957764 
	C302.272980,592.678589 296.562134,590.901367 290.893646,594.443848 
	C290.124847,594.924377 288.565796,594.718933 287.640656,594.273865 
	C282.716339,591.905579 277.803558,592.491821 272.445465,593.998535 
	C271.423859,593.949219 270.798187,593.881531 270.172516,593.813843 
	C275.263733,592.156372 279.823486,588.285767 285.811920,591.530273 
	C287.818359,592.617310 291.428040,592.465454 293.507904,591.368652 
	C299.352417,588.286499 304.040131,591.279114 309.032654,593.223816 
	C309.067871,593.237488 309.044189,593.562134 308.960205,593.678040 
	C308.872955,593.798401 308.678864,593.841248 308.269562,593.957764 
z"/>
<path fill="#1E262D" opacity="1.000000" stroke="none" 
	d="
M277.189575,612.111572 
	C272.653625,607.880554 268.259064,603.876099 264.170898,599.580078 
	C261.917023,597.211548 259.694702,596.396790 256.374207,597.903564 
	C257.611084,593.489502 261.107971,594.094604 263.452026,596.246582 
	C268.916138,601.262878 273.799164,606.912048 278.959229,612.651978 
	C279.000885,612.999084 278.993103,613.010620 278.993103,613.010620 
	C278.481720,612.745911 277.970306,612.481201 277.189575,612.111572 
z"/>
<path fill="#1E262D" opacity="1.000000" stroke="none" 
	d="
M322.867157,596.428711 
	C316.762024,595.539917 313.474487,599.888916 309.854462,603.645325 
	C308.493530,605.057556 307.030365,606.371216 305.314575,607.875793 
	C306.661255,600.123535 316.469543,593.521423 322.867157,596.428711 
z"/>
<path fill="#1E262D" opacity="1.000000" stroke="none" 
	d="
M350.025940,555.229431 
	C354.440002,550.394653 358.892090,545.837097 363.630219,541.117676 
	C363.949219,541.780762 364.354034,542.961853 363.957764,543.375427 
	C359.882965,547.628479 355.689636,551.768860 351.471191,555.880981 
	C351.293060,556.054688 350.545990,555.644714 350.025940,555.229431 
z"/>
<path fill="#1E262D" opacity="1.000000" stroke="none" 
	d="
M388.816345,524.807739 
	C385.876587,528.257690 382.733154,531.477356 379.293762,534.848511 
	C378.589630,534.790588 378.181488,534.581177 377.773315,534.371765 
	C381.386444,531.106995 384.999542,527.842224 388.816345,524.807739 
z"/>
<path fill="#1E262D" opacity="1.000000" stroke="none" 
	d="
M366.979736,546.791748 
	C363.911530,550.026855 360.804230,552.982788 357.353088,555.977600 
	C360.319702,552.848511 363.630188,549.680481 366.979736,546.791748 
z"/>
<path fill="#1E262D" opacity="1.000000" stroke="none" 
	d="
M366.313660,533.201416 
	C365.397736,529.974304 364.702545,526.911438 363.992371,523.452271 
	C364.231354,522.523071 364.485260,521.990234 365.223053,520.442017 
	C366.298889,525.148499 367.164093,528.838501 367.921143,532.550415 
	C367.955902,532.720764 367.018799,533.089355 366.313660,533.201416 
z"/>
<path fill="#1E262D" opacity="1.000000" stroke="none" 
	d="
M338.693787,551.275574 
	C341.460205,552.171448 343.989868,553.307983 346.761963,554.708496 
	C347.005829,555.141785 347.007233,555.311096 347.004333,555.740234 
	C347.000000,556.000000 346.988464,556.015503 346.988464,556.015503 
	C343.702118,555.354919 338.689453,557.967773 338.693787,551.275574 
z"/>
<path fill="#1E262D" opacity="1.000000" stroke="none" 
	d="
M373.648499,541.898560 
	C373.971344,542.745605 373.985199,543.504822 373.980103,544.643799 
	C373.480682,546.864380 373.000214,548.705139 372.519775,550.545898 
	C372.225525,550.522278 371.931305,550.498596 371.637085,550.474915 
	C372.204559,547.586853 372.772034,544.698730 373.648499,541.898560 
z"/>
<path fill="#1E262D" opacity="1.000000" stroke="none" 
	d="
M305.348724,599.960205 
	C305.926483,598.530090 306.842316,597.055420 307.930542,595.292297 
	C309.973907,597.143494 309.871246,597.352234 305.348724,599.960205 
z"/>
<path fill="#1E262D" opacity="1.000000" stroke="none" 
	d="
M371.663452,527.855591 
	C371.928192,528.738037 371.951904,529.508606 371.979919,530.665527 
	C371.403870,531.109863 370.823547,531.167908 370.243195,531.225952 
	C370.159576,530.070129 370.075989,528.914368 369.996521,527.378906 
	C370.000641,526.999268 370.012115,526.987793 370.012115,526.987793 
	C370.482208,527.239807 370.952301,527.491821 371.663452,527.855591 
z"/>
<path fill="#1E262D" opacity="1.000000" stroke="none" 
	d="
M365.288269,566.249390 
	C365.127228,565.713257 365.286987,565.444580 365.753540,565.118042 
	C366.479156,564.650452 366.998016,564.300171 368.304169,563.418518 
	C367.709351,565.767517 367.300842,567.380737 366.702271,569.744507 
	C366.127502,568.161133 365.818268,567.309265 365.288269,566.249390 
z"/>
<path fill="#1E262D" opacity="1.000000" stroke="none" 
	d="
M250.917221,597.590698 
	C249.931671,597.935486 248.865982,597.955017 247.401474,597.945557 
	C248.280792,597.699585 249.558945,597.482544 250.917221,597.590698 
z"/>
<path fill="#000000" opacity="1.000000" stroke="none" 
	d="
M248.378906,432.032654 
	C246.752045,432.042786 245.470749,432.042786 244.189453,432.042786 
	C244.187988,431.738678 244.186523,431.434570 244.185059,431.130463 
	C245.901001,431.130463 247.617004,431.124146 249.332733,431.142853 
	C249.465012,431.144287 249.595367,431.321838 249.726624,431.417542 
	C249.392563,431.619202 249.058517,431.820831 248.378906,432.032654 
z"/>
<path fill="#1E262D" opacity="1.000000" stroke="none" 
	d="
M301.255249,603.935364 
	C301.709961,602.994751 302.510956,602.026123 303.655090,601.027222 
	C303.199310,601.967102 302.400452,602.937256 301.255249,603.935364 
z"/>
<path fill="#1E262D" opacity="1.000000" stroke="none" 
	d="
M373.607849,555.067627 
	C373.938019,555.751160 373.956329,556.500732 373.945740,557.624390 
	C373.709900,557.043518 373.502930,556.088623 373.607849,555.067627 
z"/>
<path fill="#1E262D" opacity="1.000000" stroke="none" 
	d="
M337.085571,547.073364 
	C337.701569,547.307007 338.283020,547.851379 338.876587,548.716553 
	C338.276154,548.486328 337.663574,547.935181 337.085571,547.073364 
z"/>
<path fill="#1E262D" opacity="1.000000" stroke="none" 
	d="
M389.357727,534.122681 
	C389.091553,533.583008 389.075073,533.130615 389.083069,532.339722 
	C389.687500,532.456116 390.267456,532.910950 390.847412,533.365784 
	C390.434082,533.647156 390.020752,533.928528 389.357727,534.122681 
z"/>
<path fill="#1E262D" opacity="1.000000" stroke="none" 
	d="
M390.265656,530.928528 
	C390.404358,530.339050 390.873108,529.702271 391.638733,528.958557 
	C391.488953,529.528198 391.042328,530.204712 390.265656,530.928528 
z"/>
<path fill="#1E262D" opacity="1.000000" stroke="none" 
	d="
M368.154846,559.695435 
	C368.278137,559.314392 368.440979,559.129456 368.603882,558.944458 
	C368.680267,559.215454 368.756683,559.486389 368.833069,559.757385 
	C368.620178,559.802063 368.407318,559.846802 368.154846,559.695435 
z"/>
<path fill="#1E262D" opacity="1.000000" stroke="none" 
	d="
M302.003113,615.005127 
	C301.425293,615.323364 300.843506,615.635681 300.261719,615.947998 
	C300.178436,615.729553 300.095154,615.511169 300.011902,615.292725 
	C300.484619,615.194641 300.957367,615.096558 301.708893,614.993103 
	C301.987671,614.987793 301.999176,614.999146 302.003113,615.005127 
z"/>
<path fill="#000000" opacity="1.000000" stroke="none" 
	d="
M350.004028,514.003784 
	C350.007721,513.378357 350.007721,512.749207 350.007721,512.120117 
	C350.178009,512.116943 350.348297,512.113831 350.518555,512.110718 
	C350.495422,512.629944 350.472290,513.149170 350.221283,513.832153 
	C349.993408,513.995972 350.000305,514.000000 350.004028,514.003784 
z"/>
<path fill="#1E262D" opacity="1.000000" stroke="none" 
	d="
M388.845612,542.304077 
	C388.722229,542.685181 388.559204,542.870178 388.396149,543.055115 
	C388.319702,542.784058 388.243225,542.513062 388.166748,542.241943 
	C388.379822,542.197327 388.592896,542.152649 388.845612,542.304077 
z"/>
<path fill="#1E262D" opacity="1.000000" stroke="none" 
	d="
M368.712555,536.989502 
	C368.597412,537.139893 368.481750,537.157471 368.366089,537.175110 
	C368.481384,537.069031 368.596680,536.962891 368.712555,536.989502 
z"/>
<path fill="#000000" opacity="1.000000" stroke="none" 
	d="
M301.975006,411.026062 
	C301.548706,410.905609 301.137756,410.768799 300.726837,410.631989 
	C301.073425,410.613586 301.419983,410.595154 301.892334,410.775818 
	C302.018097,410.974854 301.990387,411.009705 301.975006,411.026062 
z"/>
<path fill="#1E262D" opacity="1.000000" stroke="none" 
	d="
M279.006531,612.993408 
	C279.399872,613.107239 279.787567,613.226685 280.175232,613.346130 
	C279.864014,613.353943 279.552826,613.361694 279.117371,613.190063 
	C278.993103,613.010620 279.000885,612.999084 279.006531,612.993408 
z"/>
<path fill="#1E262D" opacity="1.000000" stroke="none" 
	d="
M369.994507,527.003540 
	C369.773041,526.769348 369.537842,526.544678 369.356750,526.282654 
	C369.312897,526.219177 369.447571,526.032227 369.500122,525.902039 
	C369.657562,526.119080 369.815002,526.336182 369.992279,526.770508 
	C370.012115,526.987793 370.000641,526.999268 369.994507,527.003540 
z"/>
<path fill="#1E262D" opacity="1.000000" stroke="none" 
	d="
M257.010437,592.712463 
	C256.966400,592.712585 257.054504,592.712280 257.010437,592.712463 
z"/>
<path fill="#1E262D" opacity="1.000000" stroke="none" 
	d="
M374.021301,530.348267 
	C374.170898,530.130188 374.344452,530.125793 374.776367,530.157715 
	C374.849579,530.539062 374.664368,530.884094 374.479187,531.229126 
	C374.334564,531.006714 374.189911,530.784302 374.021301,530.348267 
z"/>
<path fill="#1E262D" opacity="1.000000" stroke="none" 
	d="
M335.286926,541.010742 
	C335.402466,540.859924 335.518494,540.842224 335.634583,540.824524 
	C335.518860,540.931030 335.403168,541.037476 335.286926,541.010742 
z"/>
<path fill="#1E262D" opacity="1.000000" stroke="none" 
	d="
M304.207214,600.881348 
	C304.092682,600.672485 304.279144,600.410278 304.779175,600.110840 
	C304.874115,600.312439 304.679260,600.563965 304.207214,600.881348 
z"/>
<path fill="#1E262D" opacity="1.000000" stroke="none" 
	d="
M356.799988,556.123535 
	C356.912201,556.330933 356.723602,556.595154 356.226929,556.907532 
	C356.126740,556.704956 356.320160,556.446533 356.799988,556.123535 
z"/>
<path fill="#1E262D" opacity="1.000000" stroke="none" 
	d="
M347.007568,555.994263 
	C347.015137,555.988464 347.414246,556.250854 347.414246,556.250854 
	C347.414246,556.250854 347.097260,556.241516 347.042847,556.128540 
	C346.988464,556.015503 347.000000,556.000000 347.007568,555.994263 
z"/>
<path fill="#1E262D" opacity="1.000000" stroke="none" 
	d="
M390.881836,526.772278 
	C390.683990,526.880127 390.438751,526.705627 390.167023,526.234009 
	C390.359222,526.146240 390.590546,526.330566 390.881836,526.772278 
z"/>
<path fill="#1E262D" opacity="1.000000" stroke="none" 
	d="
M304.806061,608.125122 
	C304.921021,608.336304 304.731537,608.601440 304.229553,608.910522 
	C304.127563,608.704285 304.322418,608.445801 304.806061,608.125122 
z"/>
<path fill="#1E262D" opacity="1.000000" stroke="none" 
	d="
M390.007263,522.005249 
	C390.007263,522.005249 389.753387,522.411621 389.753387,522.411621 
	C389.753387,522.411621 389.765167,522.096802 389.882568,522.048401 
	C390.000000,522.000000 390.007263,522.005249 390.007263,522.005249 
z"/>
<path fill="#1E262D" opacity="1.000000" stroke="none" 
	d="
M389.997437,521.996338 
	C389.994904,521.992737 390.247345,521.591614 390.247345,521.591614 
	C390.247345,521.591614 390.234161,521.901672 390.120728,521.953491 
	C390.007263,522.005249 390.000000,522.000000 389.997437,521.996338 
z"/>
<path fill="#1E262D" opacity="1.000000" stroke="none" 
	d="
M332.011597,570.991516 
	C332.022461,570.983032 332.416443,571.252380 332.416443,571.252380 
	C332.416443,571.252380 332.096619,571.245300 332.040222,571.133545 
	C331.983795,571.021729 332.000732,571.000000 332.011597,570.991516 
z"/>
<path fill="#1E262D" opacity="1.000000" stroke="none" 
	d="
M368.917816,553.850342 
	C368.722443,553.888672 368.820374,553.433472 368.848419,553.201782 
	C369.043579,553.154907 369.220459,553.332764 369.363800,553.534546 
	C369.379425,553.556580 369.201416,553.716187 368.917816,553.850342 
z"/>
<path fill="#1E262D" opacity="1.000000" stroke="none" 
	d="
M375.003296,561.705994 
	C374.897217,561.693787 374.781952,561.423950 374.818359,561.043762 
	C374.978058,561.105042 374.986084,561.276672 375.003296,561.705994 
z"/>
<path fill="#1E262D" opacity="1.000000" stroke="none" 
	d="
M336.970703,544.115723 
	C337.147827,544.043823 337.124512,544.534241 337.115173,544.780151 
	C336.934265,544.852905 336.747284,544.691101 336.604736,544.496765 
	C336.577606,544.459778 336.726105,544.293945 336.970703,544.115723 
z"/>
<path fill="#000000" opacity="1.000000" stroke="none" 
	d="
M786.786560,500.677185 
	C787.753235,498.054047 788.510254,495.765350 789.783691,491.915436 
	C793.509521,500.748291 796.749573,508.429321 800.200195,516.609558 
	C793.678467,516.609558 787.543091,516.609558 780.013733,516.609558 
	C782.330994,511.102448 784.453918,506.057068 786.786560,500.677185 
z"/>
<path fill="#000000" opacity="1.000000" stroke="none" 
	d="
M704.776550,527.603516 
	C701.041138,529.626709 697.630920,532.338318 693.945435,532.786316 
	C687.152649,533.612000 682.886597,529.955566 680.743286,523.232727 
	C678.165710,515.148132 680.855713,506.986389 686.833679,503.553589 
	C691.417786,500.921204 698.418396,501.397003 702.341858,504.940369 
	C706.973511,509.123230 709.098511,514.416382 707.651245,520.664551 
	C707.121765,522.950439 705.889343,525.073486 704.776550,527.603516 
z"/>
<path fill="#000000" opacity="1.000000" stroke="none" 
	d="
M516.001709,506.019531 
	C520.359680,503.074707 524.174377,499.142517 530.067688,501.939758 
	C535.582886,504.557556 539.869446,508.430695 540.815063,514.373413 
	C541.812134,520.640076 539.583374,526.004272 534.316101,530.444092 
	C529.919006,534.150330 525.202759,533.899109 521.103333,532.213989 
	C516.138123,530.173035 512.187012,526.120789 513.002625,519.707825 
	C513.577454,515.188049 511.073181,509.972809 516.001709,506.019531 
z"/>
</svg>