<svg version="1.1" id="Layer_1" xmlns="http://www.w3.org/2000/svg" xmlns:xlink="http://www.w3.org/1999/xlink" x="0px" y="0px"
	 width="100%" viewBox="0 0 1024 1024" enable-background="new 0 0 1024 1024" xml:space="preserve">
<path fill="#000000" opacity="1.000000" stroke="none" 
	d="
M259.772644,556.227539 
	C255.972336,552.458923 252.423676,548.938782 248.871490,545.422180 
	C247.386398,543.951965 246.738998,542.488098 248.547012,540.731995 
	C250.374603,538.956848 251.752930,539.762695 253.205887,541.242310 
	C262.545410,550.752747 271.925110,560.223816 281.253540,569.744995 
	C284.790680,573.355286 293.875122,573.585266 297.519409,570.011047 
	C300.492981,567.094666 303.332428,564.039185 306.353912,561.174744 
	C307.914246,559.695496 309.535004,556.858398 312.054077,559.509644 
	C314.458832,562.040588 311.726074,563.730774 310.271729,565.325012 
	C307.466125,568.400513 304.421204,571.256042 301.562439,574.284790 
	C297.624695,578.456787 299.732483,584.957336 304.883606,587.246948 
	C311.880035,590.356934 317.164764,589.386719 321.561035,583.019653 
	C322.961761,580.990967 324.888062,579.282898 326.747772,577.622986 
	C329.923767,574.788269 332.126526,571.945801 329.973816,567.285339 
	C328.997986,565.172607 329.572113,562.283020 331.229858,560.667786 
	C336.356659,555.672485 333.142426,551.057922 331.199615,545.909058 
	C328.336365,546.809692 326.839600,549.197083 324.681702,550.596924 
	C323.169220,551.578125 321.660645,553.090759 319.871338,551.165405 
	C318.066406,549.223267 319.588593,547.747864 320.852997,546.464966 
	C329.508118,537.683289 338.213043,528.950806 346.902740,520.203308 
	C350.889526,516.190125 350.923035,507.600800 346.955811,503.600769 
	C330.647644,487.157593 314.333832,470.720062 298.028107,454.274536 
	C293.787628,449.997742 284.714111,449.996552 280.504669,454.369415 
	C276.807495,458.210236 273.214722,462.151276 269.548462,466.022156 
	C268.231262,467.412872 266.784607,468.675629 264.859253,466.963196 
	C262.857788,465.183075 263.500153,463.546417 265.146301,461.862518 
	C269.222351,457.693054 273.229370,453.456085 277.257996,449.240417 
	C281.248718,445.064484 279.834686,438.983246 274.452881,437.145538 
	C273.979919,436.984039 273.499329,436.835663 273.044708,436.631256 
	C266.866028,433.853241 261.597260,434.272461 257.781494,440.667786 
	C256.949615,442.062073 255.598297,443.187714 254.353546,444.286835 
	C250.145782,448.002228 246.306061,451.652130 249.140930,458.189392 
	C250.025467,460.229156 249.585419,463.091309 247.976547,464.864044 
	C243.964478,469.284729 246.281082,473.414337 247.800034,477.674408 
	C249.851822,478.012024 250.626068,476.453857 251.781265,475.634857 
	C253.490097,474.423370 255.064713,472.258423 257.338745,474.535187 
	C259.750458,476.949768 257.358398,478.410645 255.954529,479.882965 
	C248.366287,487.840637 240.731339,495.753876 233.097473,503.667938 
	C231.337845,505.492157 229.847946,507.102600 230.660629,510.175537 
	C232.083557,515.556091 229.856369,520.169006 225.234131,522.861877 
	C221.161728,525.234436 214.864471,524.956909 211.514862,522.257202 
	C207.465530,518.993530 205.295532,512.422485 207.874039,507.824799 
	C211.055634,502.151794 208.304413,497.771545 206.473892,492.075378 
	C199.381638,498.112946 194.068100,504.715424 188.251083,510.799744 
	C186.443909,512.689880 188.167007,514.168884 189.436890,515.461060 
	C195.159561,521.284546 200.958374,527.033813 206.639404,532.897278 
	C208.017059,534.319214 210.543198,535.758911 208.200974,538.233948 
	C205.857346,540.710449 204.119080,538.971252 202.412003,537.144653 
	C198.216293,532.655151 193.965500,528.217163 188.965240,522.944946 
	C187.693161,529.338196 189.760742,533.969360 190.728333,538.650635 
	C191.565750,542.702026 193.050385,546.632690 194.424408,550.555237 
	C195.248795,552.908569 195.350128,554.977417 192.677231,555.890076 
	C189.982651,556.810181 189.308792,554.513794 188.555923,552.673706 
	C184.295547,542.260925 182.360703,531.293701 180.918671,520.218018 
	C180.660049,518.231689 180.600662,516.263000 179.205429,514.599121 
	C178.438858,513.684937 178.119492,512.424072 178.602676,511.287476 
	C182.942993,501.077637 181.860474,489.675873 185.668411,479.348206 
	C186.761627,476.383240 187.508942,473.289246 188.633499,470.337738 
	C189.749619,467.408386 189.937744,464.735687 188.661896,461.688080 
	C186.879044,457.429382 188.940262,452.915710 192.842484,451.312347 
	C196.963318,449.619080 202.087311,451.994904 203.916779,456.447113 
	C205.534180,460.383240 203.818695,465.465698 199.672653,466.849548 
	C196.649521,467.858643 195.432449,469.693665 194.585587,472.332916 
	C191.746994,481.179321 189.070862,490.057983 188.283920,501.047516 
	C194.126831,495.190186 199.015488,490.332703 203.846130,485.418182 
	C205.140579,484.101196 204.891632,482.330170 204.822845,480.666687 
	C204.156036,464.540833 208.710159,449.404816 213.541031,434.309784 
	C214.284988,431.985077 215.595596,430.813690 218.024719,430.313354 
	C231.769012,427.482391 245.545639,425.299835 259.622833,427.374481 
	C261.231110,427.611511 262.554199,427.416412 263.750214,426.267181 
	C268.402985,421.796509 273.097198,417.366760 277.179535,411.698853 
	C274.353668,410.638000 271.959991,411.333527 269.631958,411.797089 
	C263.585602,413.001099 257.672089,414.707062 251.837051,416.704742 
	C249.096497,417.643005 246.965332,418.821747 245.502747,421.741455 
	C243.209290,426.319763 237.775146,427.365265 233.458344,424.716339 
	C229.746964,422.438904 228.419189,417.221527 230.551651,413.294922 
	C232.766220,409.217163 237.750809,407.710907 242.132645,410.292908 
	C244.753265,411.837128 247.009201,411.766418 249.686798,410.832794 
	C258.979645,407.592621 268.712708,406.029419 278.188446,403.538727 
	C291.829071,399.953278 304.332611,404.891357 317.222168,407.193085 
	C319.827576,407.658325 322.391266,408.509399 324.880676,409.434296 
	C328.145477,410.647186 331.008148,410.836121 334.352203,409.020477 
	C338.695618,406.662292 344.736725,410.228302 345.450623,414.957214 
	C345.635498,416.181641 345.738525,417.323517 344.438599,417.980652 
	C343.032532,418.691437 342.222198,417.917023 341.725800,416.702148 
	C340.652435,414.075165 339.227478,411.927521 335.930542,412.187988 
	C332.174011,412.484772 332.747894,415.902710 331.655853,418.126129 
	C331.521149,418.400452 331.189972,418.578308 330.680267,419.050720 
	C321.477570,413.949707 311.273163,411.621033 300.099945,411.164917 
	C305.085968,416.126648 310.029053,421.132812 315.085052,426.022217 
	C316.542328,427.431488 318.554688,426.952545 320.361694,426.765289 
	C333.794769,425.373199 346.889557,427.251221 359.897552,430.513855 
	C363.179016,431.336884 365.169983,432.790619 366.089569,436.083313 
	C370.294952,451.140869 375.283508,466.055908 373.837189,482.057404 
	C373.723633,483.313995 373.979706,484.374969 374.836761,485.267517 
	C379.654236,490.284607 384.482941,495.290924 390.132324,501.157135 
	C391.149384,496.509766 389.741791,493.622620 389.060150,490.707214 
	C388.113953,486.660248 386.843170,482.689484 385.883118,478.645355 
	C385.045593,475.117432 383.779968,472.435059 379.946899,470.823517 
	C375.572357,468.984406 374.383636,463.965942 376.397858,459.714722 
	C378.180054,455.953217 381.999573,454.365723 385.981995,455.731384 
	C391.077393,457.478668 393.760284,461.396088 391.771667,466.128632 
	C389.994110,470.358856 391.060150,473.807220 392.238556,477.617981 
	C394.944702,486.369263 396.965027,495.279175 397.997192,504.395172 
	C398.240845,506.546783 398.367310,508.696442 400.110596,510.355835 
	C400.842346,511.052368 401.286926,512.171082 400.696655,513.108582 
	C396.231689,520.200623 397.914978,528.681091 395.402557,536.228760 
	C393.776184,541.114685 392.838593,546.227722 391.262451,551.132996 
	C389.924774,555.296082 388.816803,559.162903 390.357452,563.694275 
	C391.787964,567.901672 389.048462,572.021240 385.141357,573.108643 
	C380.655426,574.357117 376.474243,572.499634 374.710754,568.474915 
	C372.913239,564.372498 374.135895,559.270569 378.376770,557.912415 
	C383.302032,556.335083 384.343811,552.811829 385.374725,548.770630 
	C387.411713,540.785400 390.428406,533.002808 390.776215,523.434448 
	C385.066406,528.803040 380.133026,533.405151 375.247223,538.057251 
	C373.750366,539.482483 373.941864,541.410095 374.092346,543.237793 
	C375.414551,559.295044 370.642365,574.179260 365.407532,588.994812 
	C364.577972,591.342712 363.019867,592.425842 360.777252,593.000977 
	C347.154266,596.495239 333.454834,599.021851 319.322327,596.539856 
	C317.974030,596.303040 316.623566,596.309937 315.561371,597.340881 
	C310.469360,602.283325 305.253845,607.118774 300.636963,613.772156 
	C308.788513,613.321411 315.724030,611.242798 322.634277,609.128723 
	C327.177185,607.738892 331.668915,606.720642 333.819489,601.209839 
	C335.332458,597.332886 341.058838,596.778870 344.794617,599.117981 
	C348.795746,601.623108 350.282532,606.953613 348.085846,610.917908 
	C345.950348,614.771790 341.080963,616.729492 337.416931,614.374817 
	C334.078094,612.229126 331.348480,612.913452 328.084015,614.018921 
	C318.770050,617.172791 309.249176,619.464172 299.422852,620.473816 
	C296.688934,620.754700 293.740082,620.801636 291.373322,622.717957 
	C290.412354,623.495911 289.272980,623.656250 288.071350,623.237549 
	C275.206512,618.754395 261.183319,618.933838 248.564011,613.426819 
	C247.306107,612.877869 245.996399,613.413025 244.698898,613.876526 
	C238.359756,616.140930 234.208176,614.888611 231.967621,610.163757 
	C229.746307,605.479492 231.453110,601.520447 237.817780,597.614319 
	C231.261108,596.237427 225.157272,595.109314 219.133667,593.649902 
	C212.352554,592.006958 209.888947,582.758545 214.922089,577.589905 
	C217.584946,578.555969 217.250107,581.349121 218.112381,583.308350 
	C219.080078,585.507141 219.861038,587.511108 222.571976,588.159302 
	C232.155518,590.450989 241.791382,592.180359 251.706482,591.619507 
	C252.858368,591.554321 254.062286,591.579041 254.974823,590.094666 
	C252.182083,585.695007 248.144257,582.246643 244.431854,578.515381 
	C242.776672,576.851807 240.951645,578.095032 239.226151,578.281189 
	C234.099442,578.834229 230.076248,577.084839 227.208374,572.782776 
	C224.471436,568.677002 224.284454,564.373474 226.413437,559.981689 
	C227.212616,558.333130 228.154968,556.400269 230.494476,557.372559 
	C232.975327,558.403625 231.980255,560.303650 231.218201,562.006104 
	C229.381195,566.110046 230.125214,569.721558 234.029755,571.938293 
	C237.140106,573.704102 240.727371,573.530579 243.124557,570.545471 
	C245.899246,567.090332 245.281570,563.426636 242.490417,560.078979 
	C241.495331,558.885620 239.436401,557.713196 241.212463,555.975220 
	C242.825333,554.396912 244.659714,555.595825 246.181396,556.663574 
	C249.766907,559.179565 251.360535,564.431213 249.611160,569.772705 
	C248.678909,572.619141 249.257233,574.499084 251.252441,576.428650 
	C254.126114,579.207703 256.875092,582.115784 259.673889,584.972107 
	C264.082001,589.470764 272.495697,590.034729 277.405640,586.157593 
	C279.535736,584.475586 279.637970,576.641724 277.459381,574.382141 
	C271.677155,568.385010 265.838837,562.441956 259.772644,556.227539 
M375.360840,494.138611 
	C367.499023,486.489685 359.595123,478.883179 351.806366,471.160553 
	C349.970306,469.340057 348.317719,469.167847 345.697662,469.412689 
	C340.387146,469.908997 338.782593,473.142212 336.896362,477.340576 
	C334.908417,481.765411 335.500397,484.677765 339.081177,487.737579 
	C342.608734,490.751984 345.844910,494.138763 348.979828,497.571381 
	C351.486542,500.316254 353.822144,501.601227 357.979065,500.881622 
	C367.570038,499.221344 374.297821,507.337097 370.325409,515.904663 
	C367.490448,522.019043 371.445923,526.007996 372.304810,531.720764 
	C378.948090,526.060303 384.394592,520.766785 389.556061,515.132202 
	C392.080048,512.376831 391.810303,510.469513 389.255920,508.040161 
	C384.680695,503.688843 380.313538,499.118774 375.360840,494.138611 
M310.572083,435.418579 
	C309.139740,435.843781 307.703552,436.256622 306.275665,436.696289 
	C298.541840,439.077759 297.057709,445.270721 302.814117,451.011841 
	C310.579956,458.757019 318.301178,466.547119 326.097656,474.261200 
	C327.199280,475.351196 327.978882,477.092743 330.204590,476.921387 
	C332.309204,472.688873 335.199951,468.649597 330.872345,463.892456 
	C329.540039,462.427856 329.181030,459.985718 329.821625,458.162292 
	C332.075226,451.747650 328.494568,447.895844 324.333618,444.058563 
	C321.895020,441.809631 319.632141,439.354980 317.432098,436.867371 
	C315.687897,434.895142 313.807007,434.049164 310.572083,435.418579 
M366.734772,562.307556 
	C367.770294,557.340820 368.419464,552.367859 367.267456,546.620605 
	C362.503967,551.036743 358.275726,554.981628 354.015411,558.891479 
	C352.699829,560.098877 353.037933,561.507568 353.148590,563.030396 
	C353.880829,573.106140 348.978882,577.986389 338.970184,577.317749 
	C337.533813,577.221802 335.896698,576.268738 334.671906,577.553955 
	C330.761749,581.656982 326.961761,585.864990 322.582275,590.614746 
	C334.859314,592.076904 345.783630,590.621826 356.601257,587.683960 
	C359.030365,587.024292 360.146942,585.404907 360.786072,583.225220 
	C362.747223,576.536926 364.690643,569.843506 366.734772,562.307556 
M366.574554,462.928955 
	C364.714752,455.702087 362.863129,448.473053 360.989319,441.249847 
	C360.527496,439.469513 360.094147,437.473938 358.115265,436.858490 
	C346.666962,433.297913 335.039368,431.288147 321.967346,432.933319 
	C325.909760,437.086304 329.257568,440.487732 332.453705,444.026184 
	C334.401947,446.183075 336.515045,446.935730 339.495514,446.624207 
	C348.192047,445.715271 353.319275,450.631195 353.332123,459.430420 
	C353.334961,461.369873 352.556610,463.543610 354.257507,465.127228 
	C358.448151,469.028870 362.164551,473.479614 367.206024,476.931396 
	C368.549835,472.164520 366.934174,468.003662 366.574554,462.928955 
M225.667389,435.205841 
	C221.250580,435.357910 218.739548,437.537384 217.735092,441.931122 
	C216.589325,446.943085 214.684891,451.792999 213.707489,456.829254 
	C212.442078,463.349487 210.681519,469.903870 211.627625,477.678619 
	C216.487793,473.066864 220.572968,469.196228 224.650635,465.317657 
	C225.804031,464.220490 226.129150,462.948120 226.065491,461.291016 
	C225.649979,450.475739 229.995575,446.191345 240.481049,447.023193 
	C241.704773,447.120300 242.754211,447.302551 243.675598,446.330017 
	C247.515640,442.276489 251.364273,438.231140 256.204590,433.135498 
	C245.192627,431.380585 235.847336,433.361176 225.667389,435.205841 
M338.099762,537.578369 
	C334.917145,540.918823 337.598511,544.226624 338.401428,547.358887 
	C340.685730,556.269958 347.382111,557.870178 353.828766,551.261780 
	C355.919739,549.118286 357.717255,546.527649 360.161011,544.919739 
	C367.029236,540.400330 367.883270,534.812378 365.022095,527.456848 
	C362.839844,521.846741 356.467316,519.536560 352.051361,523.717041 
	C347.461761,528.061890 343.064117,532.609497 338.099762,537.578369 
M223.505005,475.014282 
	C220.597748,477.746826 217.640213,480.428284 214.797440,483.226318 
	C211.976120,486.003235 212.672089,497.686523 215.747147,500.153564 
	C216.118103,500.451172 216.615891,500.654022 217.086197,500.754883 
	C222.431824,501.901428 227.651443,503.006317 231.225861,496.953857 
	C232.546967,494.716888 234.546539,492.711792 236.636856,491.129730 
	C242.822418,486.448059 243.542419,480.899628 240.304932,474.176483 
	C239.320465,472.132111 238.339096,471.094452 236.145416,470.008911 
	C230.062851,466.999023 227.338242,471.180267 223.505005,475.014282 
M275.385071,592.973755 
	C273.715240,593.606567 271.814636,593.788818 270.045471,596.055969 
	C275.937103,601.942505 281.852509,607.898682 287.832489,613.789307 
	C289.043457,614.982178 290.368958,614.354004 291.359772,613.337524 
	C297.111542,607.436646 302.820984,601.494507 308.972473,595.123291 
	C303.443939,592.887939 299.128998,589.941345 293.739624,593.272278 
	C290.908356,595.022156 287.470215,594.796814 284.643158,593.102234 
	C281.709442,591.343689 278.994537,591.677307 275.385071,592.973755 
M281.974609,416.480103 
	C278.108643,420.481628 274.242676,424.483154 269.714600,429.169952 
	C275.894775,430.764099 280.449615,434.396515 286.265015,431.062805 
	C288.340576,429.872986 291.329895,430.059357 293.540436,431.249054 
	C299.217804,434.304535 303.478119,430.760010 309.175446,428.977051 
	C302.097443,422.086731 296.378265,415.294800 289.401672,409.427155 
	C286.790558,411.902374 284.635162,413.945587 281.974609,416.480103 
M249.654099,606.875610 
	C258.916656,610.765076 268.572266,612.978638 279.050079,613.402466 
	C275.000122,608.555237 270.310211,604.552490 265.897491,600.264526 
	C263.715607,598.144287 261.556488,597.147583 258.428802,597.190857 
	C253.154343,597.263916 247.961472,598.634460 242.489410,598.036316 
	C246.342239,599.658264 247.707626,603.044312 249.654099,606.875610 
M214.054413,508.530426 
	C211.340836,513.303284 212.285919,517.322449 216.597656,518.506897 
	C219.831894,519.395386 222.958450,519.034119 224.856018,515.770081 
	C226.522842,512.902954 225.631683,510.233582 223.441147,508.115112 
	C220.632095,505.398438 217.573593,505.415649 214.054413,508.530426 
M236.620651,414.790710 
	C233.696823,415.292297 232.873779,417.179077 233.384125,419.843079 
	C233.681702,421.396393 234.391251,422.844757 236.276566,422.506927 
	C238.487152,422.110840 239.443359,420.324921 239.981171,418.319855 
	C240.604752,415.994965 239.563400,414.887207 236.620651,414.790710 
M379.379181,464.445160 
	C380.756958,467.831482 383.279877,467.124756 385.510681,465.820221 
	C387.555817,464.624237 387.193390,462.301575 385.826813,461.051514 
	C382.108246,457.650024 380.883575,461.267639 379.379181,464.445160 
M236.490784,603.883606 
	C236.312546,606.548645 236.336655,609.212036 240.194473,608.224304 
	C242.093552,607.738098 243.493256,606.122925 242.523849,604.106750 
	C241.235855,601.427979 239.063156,601.525330 236.490784,603.883606 
M199.781326,458.370148 
	C199.685547,456.444305 199.323929,454.573700 196.926498,454.523895 
	C195.486557,454.493988 195.151276,455.848206 195.106781,457.038605 
	C195.046967,458.638489 194.529480,460.634125 196.485199,461.376465 
	C198.278900,462.057373 199.104385,460.569397 199.781326,458.370148 
z"/>
<path fill="#000000" opacity="1.000000" stroke="none" 
	d="
M637.697815,531.981812 
	C637.682983,525.491943 637.748718,519.496582 637.634155,513.504639 
	C637.517456,507.400055 635.314026,504.217957 630.511597,502.804565 
	C625.971252,501.468231 620.938599,503.450684 617.934387,507.829651 
	C616.093628,510.512909 615.289368,513.498352 615.313049,516.776306 
	C615.368469,524.434753 615.205566,532.096008 615.354004,539.751770 
	C615.421570,543.236267 614.023193,544.336365 610.633362,544.403870 
	C600.856934,544.598389 600.858276,544.719360 600.810181,534.814819 
	C600.776245,527.822083 600.814087,520.828125 600.694641,513.836853 
	C600.562195,506.087585 597.443420,502.342499 591.296692,502.296539 
	C584.923584,502.248901 579.625732,507.178345 579.410034,513.941711 
	C579.144897,522.258545 579.148804,530.593811 579.372131,538.912170 
	C579.483093,543.045593 578.027588,544.795898 573.897888,544.330811 
	C572.582397,544.182617 571.222961,544.181458 569.907104,544.326172 
	C565.956360,544.760620 564.683838,543.001953 564.725281,539.141296 
	C564.882568,524.491272 564.930298,509.836700 564.722046,495.188019 
	C564.657837,490.672211 566.433533,489.212921 570.639832,489.655090 
	C574.446228,490.055206 579.654114,487.759644 579.499084,495.613495 
	C591.518799,486.716309 602.737183,485.800598 612.824585,497.267456 
	C614.562378,497.219025 615.243225,495.924713 616.216064,495.077545 
	C623.200684,488.995361 630.929810,487.040710 639.803040,490.528900 
	C648.213867,493.835297 651.622253,500.687592 652.028137,508.924805 
	C652.543701,519.388550 652.136108,529.896545 652.183838,540.385193 
	C652.196228,543.113831 650.976257,544.106445 648.271240,544.298828 
	C637.740601,545.047424 637.746033,545.123718 637.697815,531.981812 
z"/>
<path fill="#000000" opacity="1.000000" stroke="none" 
	d="
M712.830933,495.114746 
	C724.213318,506.731384 725.718811,522.638245 716.846558,534.926514 
	C707.857483,547.376709 693.285950,549.151611 679.260742,538.646790 
	C679.260742,544.822998 679.285156,550.315125 679.254272,555.806946 
	C679.218628,562.144714 679.108093,562.226746 672.267578,562.235168 
	C664.925720,562.244202 664.775452,562.167664 664.763000,555.777466 
	C664.723694,535.632935 664.831909,515.487305 664.648499,495.344330 
	C664.609009,491.001312 665.980164,489.132050 670.381958,489.670776 
	C674.202148,490.138245 679.435486,487.699280 679.398376,495.412048 
	C690.905212,486.866730 701.776184,486.342377 712.830933,495.114746 
M680.833435,525.443848 
	C684.028870,531.598022 689.251953,533.621155 695.847473,532.742981 
	C702.774719,531.820618 707.795166,525.202942 707.725342,517.169128 
	C707.654846,509.057129 702.984802,503.213867 695.830261,502.285889 
	C687.761353,501.239288 681.557373,505.239197 679.755310,512.995789 
	C678.847595,516.903198 678.771118,520.923645 680.833435,525.443848 
z"/>
<path fill="#000000" opacity="1.000000" stroke="none" 
	d="
M812.117493,541.009033 
	C810.956543,539.547302 809.639343,538.461426 809.268982,537.115051 
	C807.342346,530.111328 802.614990,528.556885 795.977539,529.177307 
	C790.361084,529.702271 784.651428,529.482605 778.996704,529.253906 
	C775.518250,529.113220 773.208923,530.152283 772.153748,533.566467 
	C771.959473,534.194824 771.563171,534.757874 771.298462,535.367737 
	C767.169067,544.881836 764.115173,546.274841 753.303650,543.404175 
	C753.239502,539.436890 755.559814,536.205750 757.043579,532.804199 
	C764.833679,514.945801 773.043701,497.268311 780.651428,479.334259 
	C782.739502,474.412140 785.913696,473.844299 790.404358,473.782196 
	C794.725525,473.722443 797.453491,474.785004 799.291260,479.110046 
	C807.951233,499.490570 816.911743,519.743408 825.766235,540.041260 
	C826.233459,541.112366 826.742188,542.174866 825.998779,543.922729 
	C821.391418,544.120178 816.437073,545.683960 812.117493,541.009033 
M798.298950,516.459961 
	C798.660156,515.947632 799.433411,515.310852 799.321716,514.941284 
	C797.088501,507.547943 793.943970,500.556519 789.983887,492.959869 
	C785.445618,500.707886 783.341736,508.315338 780.065979,516.205078 
	C786.356934,517.078796 791.956848,516.580872 798.298950,516.459961 
z"/>
<path fill="#000000" opacity="1.000000" stroke="none" 
	d="
M490.455658,481.519226 
	C494.728577,484.292145 494.891357,486.951996 491.033112,489.802216 
	C490.372620,490.290161 489.752502,490.906891 489.298187,491.587311 
	C486.966003,495.079956 484.818024,495.218750 481.252899,492.560089 
	C470.822205,484.781372 455.656586,486.851776 449.141785,496.462616 
	C443.111267,505.359100 444.205627,518.426392 451.613342,525.973755 
	C458.482452,532.972351 470.704163,533.958069 479.771057,528.244751 
	C486.265442,524.152527 488.364807,524.713196 492.948334,531.177917 
	C494.952454,534.004639 492.615204,535.124817 491.224030,536.488647 
	C476.694427,550.732056 448.728210,548.309204 436.625763,531.699097 
	C427.877808,519.692871 426.987061,506.594879 433.279724,493.497833 
	C439.703522,480.127991 451.099152,473.890900 465.920074,473.648804 
	C474.907104,473.501984 482.976471,475.922363 490.455658,481.519226 
z"/>
<path fill="#000000" opacity="1.000000" stroke="none" 
	d="
M498.921478,526.609070 
	C495.811310,513.858765 498.027374,502.698578 508.250275,494.685608 
	C518.332153,486.783203 529.790710,486.460602 541.183838,492.151520 
	C551.660156,497.384460 557.379761,510.287506 554.919250,522.257751 
	C552.167542,535.644775 542.821838,544.422363 530.295654,545.384644 
	C514.547302,546.594543 504.308411,540.573608 498.921478,526.609070 
M539.837830,510.956421 
	C538.439514,507.439728 536.308350,504.573456 532.820984,502.847809 
	C525.388367,499.169952 516.935059,502.277802 513.694275,509.907898 
	C509.782776,519.117126 513.957275,529.975708 522.470276,532.818298 
	C524.575256,533.521179 526.628540,533.717102 528.836243,533.210327 
	C538.306152,531.036255 542.398254,523.326477 539.837830,510.956421 
z"/>
<path fill="#000000" opacity="1.000000" stroke="none" 
	d="
M746.282776,534.945679 
	C746.282227,535.603943 746.282532,535.770142 746.281677,535.936401 
	C746.242371,543.720093 741.789490,546.716248 734.279236,544.113647 
	C732.205078,543.394836 732.111572,541.748047 732.106995,540.113037 
	C732.046265,518.337280 732.044067,496.561279 731.989868,474.785431 
	C731.981018,471.226196 733.566650,469.557648 737.171875,469.833435 
	C738.494263,469.934570 739.838135,469.948975 741.158813,469.840057 
	C745.041565,469.519928 746.391052,471.246460 746.358582,475.108307 
	C746.217285,491.896851 746.297424,508.687256 746.295471,525.476990 
	C746.295166,528.469238 746.287415,531.461487 746.282776,534.945679 
z"/>
<path fill="#000000" opacity="1.000000" stroke="none" 
	d="
M219.036377,555.026672 
	C202.093399,575.114990 195.864197,597.966003 199.151428,623.605042 
	C193.499344,618.017639 192.912506,592.769287 197.439117,575.480835 
	C203.217529,553.411316 222.444138,530.086670 235.756180,524.973877 
	C237.854446,526.736450 235.445541,528.716553 236.100235,530.796326 
	C237.718201,532.664246 239.986481,532.502930 241.725159,531.127563 
	C245.360947,528.251404 244.261078,523.944336 244.420227,519.571472 
	C248.461212,519.755615 252.531128,519.181946 255.890381,522.471802 
	C259.295044,525.806091 259.252960,526.721985 255.116684,528.955444 
	C251.309372,531.011292 247.442398,532.958679 243.663040,535.063904 
	C234.404587,540.221191 226.640671,547.244751 219.036377,555.026672 
z"/>
<path fill="#000000" opacity="1.000000" stroke="none" 
	d="
M839.162659,544.201721 
	C835.285217,544.474365 833.840088,542.801392 833.850708,539.484253 
	C833.899841,524.166260 833.879211,508.847961 833.964783,493.530212 
	C833.976807,491.379517 834.420105,489.225800 835.962341,487.197357 
	C838.054016,487.016083 840.975708,488.808136 842.301941,485.575928 
	C843.213440,483.354279 842.804932,481.360046 840.742981,480.019104 
	C838.383240,479.897339 838.033936,482.520386 835.930176,483.054138 
	C834.159607,481.529083 833.792725,479.565887 834.701050,477.386688 
	C835.516602,475.430145 837.340088,475.097870 839.239502,474.883850 
	C847.302246,473.975403 847.943176,474.616791 847.954285,482.889618 
	C847.977966,500.539215 848.092529,518.188660 848.166443,535.838135 
	C848.201782,544.286255 848.198242,544.286255 839.162659,544.201721 
z"/>
<path fill="#000000" opacity="1.000000" stroke="none" 
	d="
M302.235535,488.792480 
	C306.759735,492.224304 312.692261,493.250732 315.662994,499.460663 
	C311.153107,499.293091 308.637573,496.576752 306.204987,494.307098 
	C303.869385,492.127991 301.805298,491.806580 299.043335,493.077515 
	C293.610474,495.577484 292.888519,495.094177 292.775299,489.133850 
	C292.744293,487.500916 292.424866,485.800385 293.514435,484.055054 
	C297.026337,484.159302 299.223877,486.895599 302.235535,488.792480 
z"/>
<path fill="#000000" opacity="1.000000" stroke="none" 
	d="
M315.709473,515.194580 
	C314.198730,517.983337 312.526978,520.171814 309.352539,519.229858 
	C307.463379,518.669312 306.465271,516.842224 306.492279,514.932312 
	C306.536835,511.782928 307.797913,509.003204 310.736023,507.584747 
	C313.027863,506.478271 315.119141,507.230377 315.740173,509.895172 
	C316.104309,511.457642 315.822662,513.170593 315.709473,515.194580 
z"/>
</svg>